<svg xmlns="http://www.w3.org/2000/svg" width="775" height="57" fill="none" viewBox="0 0 775 57">
    <g clip-path="url(#a)">
        <path fill="#000" fill-opacity=".1" d="M0 0h775v57H0z" filter="url(#b)"/>
        <path fill="#fff" d="M24.473 17.89h-7.606v-7.04h22.92v7.04h-7.605v27.898l-7.71.41V17.89zM72.68 17.89H59.117v6.68h11.155v7.04H59.116v7.137h14.392l-.827 7.04H51.406V10.85h21.275v7.04zM94.782 33.152h7.767l-3.912-9.305-3.855 9.305zm13.42 13.045l-2.569-6.013H91.859l-2.41 6.014-7.918-.803L96.18 10.873h5.244l14.697 34.522-7.919.802zM161.399 45.379l-7.453.818-2.931-20.086-5.959 20.086h-5.092l-6.681-20.086-2.209 20.086-7.453-.818 4.883-34.53 6.216-.41 8.176 21.99 7.396-21.99 6.224.41 4.883 34.53zM216.085 31.393a21.037 21.037 0 0 1-.715 5.877 12.272 12.272 0 0 1-2.265 4.705 9.868 9.868 0 0 1-4.015 3.13 16.608 16.608 0 0 1-12.047 0 9.798 9.798 0 0 1-4.08-3.13 12.279 12.279 0 0 1-2.289-4.705 21.66 21.66 0 0 1-.722-5.877V10.85l7.709-.41v20.497c-.015 1.17.046 2.339.185 3.5.072.913.346 1.8.803 2.593.368.71.965 1.276 1.695 1.606a6.57 6.57 0 0 0 2.899.538 6.488 6.488 0 0 0 2.827-.482 3.75 3.75 0 0 0 1.799-1.517c.49-.78.808-1.656.932-2.57.187-1.208.273-2.43.257-3.652v-20.07h7.035l-.008 20.511zM237.472 17.89v8.831h1.847c3.212 0 4.015-.674 4.393-1.003 1.212-1.004 1.212-2.618 1.212-3.42 0-2.465-.891-3.115-1.341-3.445-1.333-.971-3.284-.971-4.264-.971l-1.847.008zm0-7.04h1.847c1.972-.066 3.941.23 5.806.874a10.754 10.754 0 0 1 4.168 2.409 9.372 9.372 0 0 1 2.49 3.548c.591 1.387.881 2.884.851 4.392a10.845 10.845 0 0 1-.803 4.423 9.391 9.391 0 0 1-2.409 3.597 10.793 10.793 0 0 1-4.016 2.408 15.452 15.452 0 0 1-5.525.875h-2.409v12.436h-7.71V11.291l7.71-.442zM304.958 17.89h-13.983v8.269h12.392l-.827 7.04h-11.565v12.589h-7.709V10.849h21.692v7.04zM322.763 28.319c-.03 1.453.243 2.897.803 4.238a10.664 10.664 0 0 0 2.129 3.444 9.325 9.325 0 0 0 3.164 2.313 9.34 9.34 0 0 0 7.758 0A9.347 9.347 0 0 0 339.781 36a10.81 10.81 0 0 0 2.128-3.444c.557-1.342.831-2.785.803-4.239a10.423 10.423 0 0 0-.803-4.19 10.985 10.985 0 0 0-2.128-3.468 9.166 9.166 0 0 0-3.164-2.337 9.346 9.346 0 0 0-7.758 0 9.306 9.306 0 0 0-3.164 2.337 11.108 11.108 0 0 0-2.129 3.508 10.442 10.442 0 0 0-.803 4.15zm-7.71 0a17.931 17.931 0 0 1 5.172-12.637 16.787 16.787 0 0 1 5.622-3.83 16.11 16.11 0 0 1 6.891-1.412 15.949 15.949 0 0 1 6.891 1.413 16.592 16.592 0 0 1 5.621 3.83 16.934 16.934 0 0 1 3.783 5.675 17.993 17.993 0 0 1-3.783 19.597 16.782 16.782 0 0 1-5.621 3.83 16.11 16.11 0 0 1-6.891 1.412 15.947 15.947 0 0 1-6.891-1.413 16.605 16.605 0 0 1-5.622-3.83 16.915 16.915 0 0 1-3.782-5.675 16.59 16.59 0 0 1-1.414-6.96h.024zM369.461 25.958h4.015a6.832 6.832 0 0 0 2.755-.417 3.746 3.746 0 0 0 1.606-1.028c.383-.364.66-.824.803-1.333a4.4 4.4 0 0 0 .209-1.332 4.658 4.658 0 0 0-.209-1.47 2.794 2.794 0 0 0-.803-1.26 3.912 3.912 0 0 0-1.606-.899 9.407 9.407 0 0 0-2.755-.33h-4.015v8.07zm17.066-4.11a9.105 9.105 0 0 1-1.984 6.133 10.63 10.63 0 0 1-5.108 3.782l7.14 13.647-7.397.803-7.228-13.648h-2.521v13.207h-7.71V11.25l7.71-.41h5.035a12.607 12.607 0 0 1 5.011.875 10.434 10.434 0 0 1 3.783 2.36 9.859 9.859 0 0 1 2.409 3.493c.592 1.348.885 2.807.86 4.279zM437.462 17.89h-13.565v6.68h11.147v7.04h-11.147v7.137h14.392l-.827 7.04h-21.274V10.85h21.274v7.04zM445.895 11.259l8.376-.82 7.967 11.666 6.987-11.665 7.967.819-10.891 16.907 11.766 17.213-8.481.818-8.272-12.074-7.348 12.074-8.023-.818 11.364-17.27-11.412-16.85zM511.021 20.82a9.368 9.368 0 0 0-3.165-2.408 8.41 8.41 0 0 0-4.015-.9 8.564 8.564 0 0 0-3.879.844 9.306 9.306 0 0 0-3.164 2.336 11.114 11.114 0 0 0-2.129 3.468 10.44 10.44 0 0 0-.803 4.19 10.261 10.261 0 0 0 .803 4.216 11.084 11.084 0 0 0 2.129 3.444 9.155 9.155 0 0 0 3.164 2.336c1.21.58 2.538.868 3.879.843a8.125 8.125 0 0 0 4.015-.947 10.724 10.724 0 0 0 3.213-2.409l5.244 5.242a16.86 16.86 0 0 1-5.622 3.83 16.299 16.299 0 0 1-6.858 1.357 15.827 15.827 0 0 1-6.915-1.413 16.5 16.5 0 0 1-5.622-3.854 17.343 17.343 0 0 1-3.782-5.7 16.79 16.79 0 0 1-1.39-7.016 17.804 17.804 0 0 1 5.172-12.613 16.656 16.656 0 0 1 5.622-3.773 16.307 16.307 0 0 1 6.915-1.389c2.432-.07 4.849.413 7.067 1.413a16.55 16.55 0 0 1 5.678 4.014l-5.557 4.89zM548.227 17.89h-13.564v6.68h11.147v7.04h-11.147v7.137h14.392l-.828 7.04h-21.274V10.85h21.274v7.04zM561.18 45.788V10.849l7.71-.41v27.642h11.926l-.723 7.707H561.18zM591.25 45.788V10.849l7.71-.41v27.642h11.926l-.723 7.707H591.25zM642.599 17.89h-13.573v6.68h11.155v7.04h-11.155v7.137h14.392l-.819 7.04h-21.283V10.85h21.283v7.04zM683.664 45.378l-6.53.803L662.59 24.04v21.733h-7.043V11.25l7.043-.803 7.3 10.942c1.39 2.055 2.241 3.356 2.675 4.014a495.831 495.831 0 0 0 2.313 3.492l1.606 2.473.61.923V10.85h6.53l.04 34.53zM721.103 20.82a9.364 9.364 0 0 0-3.164-2.408 8.416 8.416 0 0 0-4.016-.9 8.564 8.564 0 0 0-3.879.844 9.306 9.306 0 0 0-3.164 2.336 11.093 11.093 0 0 0-2.128 3.468 10.494 10.494 0 0 0-.803 4.19 10.28 10.28 0 0 0 .803 4.216 11.063 11.063 0 0 0 2.128 3.444 9.164 9.164 0 0 0 3.164 2.336c1.21.58 2.538.868 3.879.843a8.11 8.11 0 0 0 4.016-.947c1.21-.597 2.3-1.414 3.212-2.409l5.236 5.242a16.903 16.903 0 0 1-5.621 3.83 16.349 16.349 0 0 1-6.867 1.357 15.827 15.827 0 0 1-6.915-1.413 16.51 16.51 0 0 1-5.622-3.854 17.36 17.36 0 0 1-3.782-5.7 16.868 16.868 0 0 1-1.382-7.016 17.663 17.663 0 0 1 10.762-16.386 16.332 16.332 0 0 1 6.915-1.389c2.432-.07 4.849.413 7.067 1.413a16.55 16.55 0 0 1 5.678 4.014l-5.517 4.89zM757.317 17.89h-13.564v6.68h11.155v7.04h-11.155v7.137h14.392l-.828 7.04h-21.274V10.85h21.274v7.04z"/>
    </g>
    <defs>
        <filter id="b" width="1015" height="297" x="-120" y="-120" color-interpolation-filters="sRGB" filterUnits="userSpaceOnUse">
            <feFlood flood-opacity="0" result="BackgroundImageFix"/>
            <feBlend in="SourceGraphic" in2="BackgroundImageFix" result="shape"/>
            <feGaussianBlur result="effect1_foregroundBlur" stdDeviation="60"/>
        </filter>
        <clipPath id="a">
            <path fill="#fff" d="M0 0h775v57H0z"/>
        </clipPath>
    </defs>
</svg>
