<svg xmlns="http://www.w3.org/2000/svg" width="36" height="36" viewBox="0 0 36 36">
    <path fill="#000" fill-rule="evenodd" d="M22.161 9.754l-2.159-.004c-2.425 0-3.992 1.739-3.992 4.43v2.042h-2.17c-.188 0-.34.165-.34.367v2.96c0 .203.152.367.34.367h2.17v7.467c0 .203.152.367.34.367h2.831c.188 0 .34-.164.34-.367v-7.467h2.537c.188 0 .34-.164.34-.367v-2.96a.383.383 0 0 0-.099-.26.327.327 0 0 0-.24-.107h-2.538v-1.731c0-.832.183-1.255 1.186-1.255h1.454c.187 0 .339-.165.339-.367V10.12c0-.203-.152-.367-.339-.367z"/>
</svg>
