<svg width="16" height="16" viewBox="0 0 16 16" fill="none" xmlns="http://www.w3.org/2000/svg">
<g clip-path="url(#clip0)">
<path d="M5.88056 3.09877C5.88056 3.50197 5.88056 5.30164 5.88056 5.30164H4.26666V7.99533H5.88056V16H9.19586V7.99555H11.4206C11.4206 7.99555 11.6289 6.70395 11.7299 5.29171C11.4404 5.29171 9.2084 5.29171 9.2084 5.29171C9.2084 5.29171 9.2084 3.72461 9.2084 3.44993C9.2084 3.17465 9.56987 2.80437 9.92713 2.80437C10.2837 2.80437 11.0363 2.80437 11.7334 2.80437C11.7334 2.43762 11.7334 1.17042 11.7334 9.15624e-05C10.8028 9.15624e-05 9.74415 9.15624e-05 9.27748 9.15624e-05C5.79861 -9.44348e-05 5.88056 2.69627 5.88056 3.09877Z" fill="#BC9366"/>
</g>
<defs>
<clipPath id="clip0">
<rect width="16" height="16" fill="white"/>
</clipPath>
</defs>
</svg>
