<svg width="32px" height="32px" viewBox="0 0 32 32" version="1.1" xmlns="http://www.w3.org/2000/svg" xmlns:xlink="http://www.w3.org/1999/xlink">
    <g id="0000" stroke="none" stroke-width="1" fill="none" fill-rule="evenodd">
        <g id="UI" transform="translate(-432.000000, -684.000000)" fill="#000" fill-rule="nonzero">
            <g id="insta" transform="translate(432.000000, 684.000000)">
                <g id="instagram-logo" transform="translate(6.000000, 6.000000)">
                    <path d="M14.4806047,0 L5.51915865,0 C2.47589642,0 0,2.47601472 0,5.51927695 L0,14.480723 C0,17.5241036 2.47589642,20 5.51915865,20 L14.4806047,20 C17.5241036,20 20,17.5239853 20,14.480723 L20,5.51927695 C20.0001183,2.47601472 17.5241036,0 14.4806047,0 Z M18.2256214,14.480723 C18.2256214,16.545646 16.545646,18.2255031 14.480723,18.2255031 L5.51915865,18.2255031 C3.45435402,18.2256214 1.77449693,16.545646 1.77449693,14.480723 L1.77449693,5.51927695 C1.77449693,3.45447232 3.45435402,1.77449693 5.51915865,1.77449693 L14.4806047,1.77449693 C16.5455277,1.77449693 18.2255031,3.45447232 18.2255031,5.51927695 L18.2255031,14.480723 L18.2256214,14.480723 Z" id="Shape"></path>
                    <path d="M10,5 C7.24295847,5 5,7.24300996 5,10.0001148 C5,12.7571048 7.24295847,15 10,15 C12.7570415,15 15,12.7571048 15,10.0001148 C15,7.24300996 12.7570415,5 10,5 Z M10,13.2782012 C8.19238804,13.2782012 6.72164451,11.8076535 6.72164451,10 C6.72164451,8.19223176 8.19227326,6.72156926 10,6.72156926 C11.8077267,6.72156926 13.2783555,8.19223176 13.2783555,10 C13.2783555,11.8076535 11.807612,13.2782012 10,13.2782012 Z" id="Shape"></path>
                    <path d="M15.5,4 C15.1059091,4 14.7187727,4.15954545 14.4404545,4.43909091 C14.1607727,4.71727273 14,5.10454545 14,5.5 C14,5.89422727 14.1609091,6.28136364 14.4404545,6.56090909 C14.7186364,6.83909091 15.1059091,7 15.5,7 C15.8954545,7 16.2813636,6.83909091 16.5609091,6.56090909 C16.8404545,6.28136364 17,5.89409091 17,5.5 C17,5.10454545 16.8404545,4.71727273 16.5609091,4.43909091 C16.2827273,4.15954545 15.8954545,4 15.5,4 Z" id="Shape"></path>
                </g>
            </g>
        </g>
    </g>
</svg>
