<svg xmlns="http://www.w3.org/2000/svg" width="60" height="60" fill="none" viewBox="0 0 60 60">
    <path fill="#BC9366" d="M0 0h60v60H0z"/>
    <path fill="#fff" d="M36.926 22.968c0-1.553-.383-3.056-1.119-4.345l-.174-.306H24.715l-.17.306c-.734 1.287-1.12 2.791-1.12 4.345 0 3.961 2.522 7.244 5.794 7.787v9.251c-1.888.077-3.294.364-3.294.703 0 .404 1.917.727 4.282.727 2.367 0 4.287-.323 4.287-.727 0-.34-1.406-.626-3.294-.703v-9.258c3.24-.578 5.726-3.848 5.726-7.78zm-6.72.532c-3.055 0-5.706.5-5.576-.536 0-1.224.274-2.407.8-3.444h9.49a7.658 7.658 0 0 1 .802 3.444c-3.223-.464-2.458.536-5.515.536z"/>
</svg>
