<svg xmlns="http://www.w3.org/2000/svg" width="296" height="296" fill="none" viewBox="0 0 296 296">
    <g fill="#fff" opacity=".07">
        <path d="M178.124 233.144l-1.38 6.706 1.359-.415 2.786-7.135-2.765.844zM71.924 54.425l1.332 6.716 1.093-.911-.203-7.658-2.222 1.853z"/>
        <path fill-rule="evenodd" d="M188.142 147.001c.163.103-.045.921.023.965-1.309-.695-2.581-1.512-3.95-2.074-.174-.057.032-.92-.045-.951 1.397.57 2.658 1.374 3.972 2.06zm-7.284-7.441c-.879-.26-1.939-.467-2.777.094-3.426 2.33-3.6 7.095-4.92 10.695.056-.138-.389-.741-.308-1.001 1.166-3.27 1.651-8.217 4.802-10.352 2.197-1.491 4.883.447 7.349.228l.028.948c-1.513.142-2.76-.176-4.174-.612zm-9.217 18.161c-.847 1.29-1.051 1.21-1.756 2.586-1.184 2.218-2.489.782-3.159-.019-.346-.286-.838-1.563-10.491-1.696-4.866-.17-5.953-2.479-6.126-3.063-.75-1.752-.655-1.621-1.594-2.545-.516-.548-.57-1.034.956-.471 2.917 1.041 4.819 4.017 7.403 4.469 1.16.225 1.852.529.616-.529-1.216-1.014-1.758-1.565-2.759-2.437-.652-.434-.89-.81.502-.434 1.368.335 5.513 1.038 8.473 2.734 2.846 2.026 1.664 1.038 3.192 2.452 1.511 1.395 2.534.539 3.752-1.677.789-1.401 2.866-4.081 3.091-4.305.121-.071.099-.219.099.05-.064.918-1.859 4.428-2.199 4.885zm-33.78 19c-2.455-1.737-4.931-2.343-6.197-3.028-.799-.389-1.09.653-1.01 2.332.039.973-.57 2.031-1.288 2.149-.391-.176-.475.138-.818-1.059-.456-1.698-.161-2.047-2.289-2.855-1.503-.511-1.651-2.216-.955-3.29 1.038 1.642 1.638 2.104 2.898 2.699.15-.58-.232-.939-.824-1.762-.212-.325-.507-1.438.974-1.485 1.346 0 3.142-.147 5.752 1.266 1.132.575 2.936 1.882 7.585 2.562 1.081-.016 13.392 1.081 23.062-11.076-2.706 5.113-9.535 14.067-26.89 13.547zm-5.515 15.903l-.359.408c-.441.737-3.074 2.272-2.788 4.224 1.494 2.517 6.046 3.078 8.569 3.441 0 0 3.418.445 4.136 1.674.44.789 1.298.612 2.252.731.387.859.871 1.68 1.621 2.011.526.72.853 1.172 1.369 2.303.27 1.22-2.666 1.238-3.379.52-.256-.273-.368-.97-.23-1.462.099-.346.226-.737.028-1.094-.14-.234-1.333-1.464-1.769-1.545-.6-.028-1.023.238-1.444.462-.557.327-.91.503-1.382.221-1.41-1.115-2.788-1.006-4.058-.9l-1.157.128c-2.504-2.157-7.153-3.642-8.042-4.771-.458-.587-.611-.901.148-1.58.157-.139-.282-.468-.705-.27-.31.163-.6.279-1.199.373-1.174.224-.241-.737 0-1.078.599-.802 3.709-2.388 4.61-2.984 2.235-1.562 5.829-3.72 7.361-6.686-.487 1.418-1.532 3.437-3.582 5.874zm4.528 18.548c-.772.303-1.401.688-1.657 1.064-.449-.019-.888-.019-.888-.126 0-.102.08-.215.278-.368l.099-.062.014-.082v-.232c0-.323-.193-.486-.354-.611l.017-.017c1.719-.862 3.639 0 2.491.434zm-2.732-1.453c0-.212.08-.821.08-.821.026-.225.077-.481.077-.756-.01-.479-.24-1.013-.922-1.273v-.143c-.488.187-.866.277-1.203.296h-.233c-.629-.056-1.139-.395-1.942-.943-1.054-.714-1.971-2.186-3.353-2.15h.184l-1.575-.318c-1.18-.365-3.501-2.022-4.228-2.022-.107-.011-.157.019-.198.073l.172 1.827-.116 1.667c-.724 3.39-3.735 3.796-3.969 3.886 1.173-.844 1.985-2.465 1.956-4.13-.035-2.782-.725-3.267-1.071-3.25-.081 0-.131.032-.131.032-.022-1.747-.337-6.852-1.087-8.836a14.504 14.504 0 0 0-1.843-3.385l.458.41c3.482 3.325 2.584 7.633 3.209 6.87l2.44-2.208c.978-1.566 2.325-3.694 1.769-6.198-.677-2.364-2.244-3.241-3.824-5.12l-2.934-2.931c-1.433-2.15-1.507-5.112-.423-7.908.118-.382.32-1.1.32-1.614.309-1.449-.496-1.887-1.603-1.872-1.974 0-4.991 1.347-4.667.587.112-.305 2.029-1.754 5.597-1.7l.353.027c1.831.22 2.972 2.173 1.859 4.63-2.352 4.75 1.565 7.594 4.219 7.791 3.733.319 2.656 1.9 5.775 3.25 1.44.568 3.405.843 5.03.888a5.407 5.407 0 0 1-2.218.552h-.362c-.982-.026-2.289-.215-4.101-.681a.939.939 0 0 0-.333-.058c-.857-.05-1.736.703-.696 1.876 1.064 1.238 3.276 2.392 4.453 2.491-.655 1.391-1.917 2.796-2.19 3.158-1.526 1.979-6.637 5.332-6.934 5.575-1.998 1.53-.67 2.338.579 2.525 2.001.291 2.89.323 4.371.772 3.706 1.962 2.629 2.369 4.048 3.523 2.274 1.876 5.515 1.177 6.192 3.191.731 2.019-.295.952-.75 1.859-.106.198-.155.379-.235.561zm-19.232-29.112l2.263 2.953c1.561 1.857 3.145 3.761 3.809 5.977.064.351.105.695.105 1.023.026 1.458-.621 2.795-1.461 4.187-1.04-3.15-3.258-6.091-6.811-8.988-.351-.314-.432-.737-.493-1.266l-.199-.814-.772-1.107c-.503-.678-.941-1.288-1.042-2.07l.253-.185.628-.533c.036-.196.054-.434.054-.582-.037-.819-.323-1.548-.62-2.214l-.569-1.606a8.478 8.478 0 0 1-.041-.761c-.03-1.407.426-2.327 1.329-2.882.556-.352 1.1-.477 1.556-.477.369 0 .692.064.956.183.342.137.41.414.41.608 0 .107-.004.153-.004.153-.503 1.319-.737 2.615-.701 3.872.016 1.628.48 3.222 1.35 4.529zm.948 23.425c-.153-2.963-2.235-5.601-3.86-7.901l-2.414-2.966-.064.024-.555.131c-1.272-1.498-1.545-3.26-2.254-4.932l-1.283-2.809-1.114.053-.677.045c-.148.063-.206.063-.273-.017-.18-1.446.039-2.11-1.285-9.005-.107-1.238.054-2.844.516-4.381.615-.563-.623 2.842 1.212 6.895.247.572 1.182 1.378 1.279 3.68.305.529.384-.901.759-.366.687.847 1.962 4.091 2.918 5.473 1.112 1.627 1.638 2.809 2.988 3.924.122-2.048.084-3.729-1.728-5.081-.925-.735 3.078-2.149 2.934 3.856-.151 5.681 5.078 7.678 2.901 13.377zm31.279-58.938c.108-.138-.215-1.216-.215-1.216 1.036-2.442-1.981-3.141-3.34-3.401-2.1.228-5.814-.5-7.619-.844-5.331-1.069-8.769 5.115-12.006 7.974l-.26.131c-.839 1.068-2.696 2.261-4.617 4.262l-4.434 3.002c-.888.48-1.689.967-2.455 1.442-.004-.042-.696.454-1.423 1.024l.108-.043c-.718.647-1.436 1.3-2.074 2.061-.475.412-.907.584-1.391.772-.664.253-1.377.548-2.315 1.45-.907.507-1.665 1.221-2.03 1.494-.725.597-1.125.468-1.705.238l-.17.044-1.857-1.625c-.041-.17-.36-.389-.372-.551l-.105-.139-.071-.176-.116-.205c.327-.197.686-.197.712-.625.027-.327.19-.632.027-.982l.022.023c.181.032.505.084.746-.206.215.254.369.206 1.023.533.593.305.741.776 1.302 1.141.619.368 1.552.134 1.481-.552-.154-.705-.597-.099-1.689-1.141l-.699-.66c-.068-.084-.296-.43-.526-.422l.073-.52c.026-.341.077-.432.471-.565-.086.395.165.731.674 1.208 1.013 1.044 1.83 1.232 2.468.785.35-.261 1.354-.108 2.491-.136.664.019.978.056 1.476-.488.112-.161.147-.318.331-.436.278-.557.665-1.206 1.146-1.661 1.575-1.471 6.551-3.272 8.073-6.694.081-.15 1.665-.058 2.603-.885 1.354-1.171 1.337-.836 2.566-2.459 2.125-2.815 1.782-2.944 3.235-3.869.872-1.661.599-3.806-.247-4.937-.824-1.068-.484-1.553 1.725-2.581 2.67-1.229 6.678-.219 9.55-1.812.135-.107.184-.202.184-.333 0-.215-.103-.488.243-.821.426-.507.972-.052 1.49-.507 1.39-1.202 3.333-2.36 1.39 1.283-.386.827 1.512.288 3.753.89 1.584.471.142 2.284 3.895 2.764.548.062.569 1.152 1.171 1.289.615.121 1.859.174 3.834-.513 1.806-.615 1.314.529.626.969-.565.337-1.821.868-3.043 1.711-1.081.789-.923.799.391.501 1.341-.26 1.369.41.49 1.034-.72.492-.759.511-1.554 1.212-.591.529-.408.713.468.69 1.14-.063 3.37-1.253 4.407-1.612 1.005-.379 2.198 0 .53.724-1.9.879-2.927 1.758-3.815 2.521-1.085.714-1.15 1.859-2.998 3.837-.759.735-1.939 1.657-2.571 1.648-1.388.019.542-5.04.542-5.04zm-26.441-14.011c1.193-2.15 1.947-3.254 2.962-5.049.969.301 2.104.731 2.571 1.786.103.952-.153 2.042-.192 3.039-.926 1.141-2.214 1.962-3.581 4.271-.647.714-.195 3.318-2.138 5.042-3.024 2.755-2.577 7.4-6.56 8.552-2.209.785-6.31 6.74-6.473 6.805-.116 0-.196-.009-.299 0a3.49 3.49 0 0 0-1.262.267c5.225-8.525 9.971-16.415 14.972-24.713zm-1.455-8.871l-.09-.073c-3.014-.548-2.62-2.388-2.62-2.388v-.165c-.307-.253-.394-.518-.198-.858l-.677-.431c-.092-.205-.009-.794-.009-.794-.373-1.18.129-1.661.817-2.239-.131.516-.058 1.175.215 1.075.561-.173.587.244.817.75.193.517-.256-1.131.658-1.292.917-.157 1.317-.017 1.294-.753-.009-.713-1.041.862-1.06-.225-.035-.834.593-1.126.795-1.126.795 0 .353.915 1.103.668 1.822-.604.975.619 1.773.733 1.253.151 1.266 1.139 1.683 1.09.404-.018-.74-1.576 0-1.576h.038c.056-.602.192-1.139.192-1.139.744-.612 1.928-1.347 2.36-1.365.645.157.943.252 1.289.673-.073.372-.769 0-.832.208-.072.263.579.852-.008 1.251-.522.355-1.195-.055-1.202-.444-.414.264-.468 1.104-.58 1.796l.131.052c.731.095.071 1.429 1.453 1.18.206-.247-2.508 4.183-3.815 6.347-1.225-.288-2.962.417-3.527-.955zm-1.696-9.471a6.88 6.88 0 0 0 .394-.871c.449.198 1.831 0 1.597.696-.314.903-.514.179-1.097.598-.967.673.016.795-.589 1.332-.52.467-.61.086-.812.022.256-.533.292-1.318.507-1.777zm2.289-1.728c.144-.323.327-.516.538-.65-.041.692.395 1.279.889 1.875.332.44-.745 1.24-.889.674-.121-.556.314-1.113.062-1.463-.116-.166-.402-.278-.664-.333l.064-.103zm2.594.103c.942 0 .304 1.571 1.013 2.042.198.144-1.3.808-1.52-.766-.193-1.337-.032-1.257.507-1.276zm6.771 5.876c.211-.041.615-.211 1.019-.157.152.039.18.292-.192 1.077-.212.443 1.064.129 1.728.215.269.382.106 1.162-.167 1.68l-.458.568c-.251.247-.853.988-1.029 1.747-.222 1.242-.039 3.527.176 4.716.23 1.193 1.889-.74 2.981-.965 2.867-.557.885.888-.121 1.306-1.033.458-1.571 1.718-2.546 1.984-.776.211-2.388.897-3.042 1.359.086-.566-.122-1.715-.571-3.663-.375-.857-1-1.867-1.673-2.531-.225-.215-.058-.076-.561-.327l4.456-7.009zm11.477 7.724c.972.413.565.241 1.722.112 2.639-.329 3.501.606 3.649 1.632.202 1.36.74 1.1 1.449.952.862-.194 1.711.157 2.164.647 1.12 1.135 1.327.838 2.657 1.726.481.346.911.584.967.988.2.92-.056 1.217-1.053.118-.452-.574-1.324-.561-2.59-.808-1.189-.283-1.552-.298-2.773-1.311-1.738-1.494-2.325-1.526-3.649-1.777-1.279-.23-3.151-1.436-3.299-1.576-.609-.687-.228-1.091.756-.703zm2.156-11.314c.32-.715 1.253-1.298 2.814-2.806 1.648-1.539 5.781-2.945 5.168-3.596-.086-.838-.388-1.988.132-3.368 1.766-3.125 6.203-4.376 7.453-6.562.334-.587 2.094-2.15-.24-1.148-.589.26-1.449.112.045-1.029 1.042-.533 1.827-1.234 2.36-1.516.301-.163.872-.503 1.244-.85.987-.106-.58 1.25-1.352 2.51-.767 1.18-1.184 3.293-1.803 4.554-.754 1.734-1.578 3.766-3.922 4.937-1.499 1.863-1.067 3.097-6.306 9.345-.957 1.107-1.881 2.622-2.257 4.806-3.222 1.014-3.559-4.806-3.336-5.277zm18.087-22.991c.386-.57.683-.67 1.656-.369.647.135 1.348-.615 1.862-1.423 1.029-1.674 1.294-1.103.84-.436l-.773 1.75c-.228.805-1.83 1.115-2.728 1.308-.206 0-.492.062-.83.224-.238.058-.408-.467-.027-1.054zm6.394-6.733s-2.809 3.81-2.992 3.654c-.14-.099-.49-.316-.452-.605.026-.105 3.687-5.136 3.444-3.049zM154.892 132.3c1.016-.09 2.065.417 2.405.669l.153.081c.197.381.36.753.576 1.082l.008.214c-.026.377-.413.682-1.006.314-.584-.43-1.068-1.434-2.029-1.691-.95-.252-.744-.624-.107-.669zm46.636-9.087l-.058-.163-.16.028c-1.315.071-2.396.548-3.462 1.132l.256.888c0 .112.034.29-.11.38-.718.467-2.199 1.922-1.962 2.868.045.333.03.741.03 1.094 0 .057-.024.451-.08.346 0 0-.01-.043-.026-.071-.217-.952-.369-2.154-.032-3.097.048-.147.114-.241.153-.377.036-.098.081-.206.112-.296.068-.106.139-.219.215-.323.036-.081.09-.18.171-.279.08-.097.162-.2.243-.305.067-.067.134-.129.196-.196.118-.118.262-.23.395-.342l.009-.017.041-.038c.084-.061.165-.116.266-.192l-.449.23-.215.112c-.109-.045-.208-.054-.307-.086l-.301-.009c-.892 0-1.829.598-2.633 1.15l-.935.632c-2.585.714-4.675 2.616-6.723 4.471-1.543 1.386-3.114 2.759-4.89 3.688 1.395.498 3.459.872 4.312 1.769.153.234-.129.844.015.965-1.07-1.154-4.741-1.531-5.943-2.07l.019-.026c-.172-.041-.958-.193-1.523-.311l-.211-.045c-2.216 1.231-4.931 3.168-5.967 5.54-.328 1.296-.827 3.938-.997 4.71-.215 1.145-.655 3.879-1.145 4.762-.52-1.876-2.696-5.788-2.696-5.788s-2.6-3.093-2.918-4.354c-.342-1.18-1.544-3.11-2.638-3.985-1.285-.731-1.841-1.876-2.42-3.116-.58-1.305-1.19-2.674-2.755-3.476l-.337-.817c-.916-2.145-5.054-4.844-5.054-4.844l-.107-.035c-1.53-.35-2.02-1.377-2.5-2.437l-.286-.561c-.032-.363-.105-.713-.105-1.072-.026-2.169 1.311-3.936 2.73-5.847 0 0 3.576-3.636 4.589-6.63 0 0 1.362-1.937 1.362-1.978 2.197-1.979 2.351-4.044 3.258-6.634.426-1.31.353-.91 1.116-2.077 1.801-2.95 2.429-3.828 3.132-4.017l.29-.13c.443-.269.991-.512 1.319-1.804l.304-1.122.292-.879c.657-.862 1.13-1.734 1.248-2.41l.005-.13a1.033 1.033 0 0 0-.249-.633c-.074-.045-.16-.045-.241-.072l.44-.583c.355-.426 1.013-1.176 1.006-1.741-.054-.813-.576-.916-.842-.952l-.075-.005h-.044c-.414-.03-2.03 1.733-2.03 1.733-.727.578-4.607 5.354-4.607 5.354-1.844 1.889-5.152 6.282-5.162 6.345.004-.04-2.311 2.052-2.311 2.052l-3.325 3.463c-.984.844-1.67 2.398-2.286 4.498-2.036 1.135-3.693 3.158-4.658 5.765-.812 1.019-2.113 1.855-3.366 2.626-2.143 1.346-4.326 2.743-4.537 5.674-.709.295-1.305.763-1.861 1.238l-.974.708c-.471.343-.567.042-.821-.153.744-.995.821-1.157.95-1.369.116-.213.185-.434.185-.623-.022-.619-.49-1.189-1.099-1.526l-.028-.359c-.008-.25-.098-.536-.414-.798l.055-.118-.008-.043c0-.413-.211-.512-.387-.602l-.122-.064v-.026c0-.067.073-.198.262-.436.152-.237.337-.448.312-.753 0 0 0-.054-.003-.103l-.234-.296c4.995-8.11 12.238-20.268 15.722-26.142l.955-1.584c.126-.503.193-.624.584-.97.789-.875.843-1.893.843-2.29v-.138l-.018-.256-.277.023c-.144.01-1.442.454-1.953 1.731-.095.455-.265.696-.677 1.083l-2.384 3.922-2.24 3.613-8.507 14.106s-3.466 5.608-3.641 5.941c-.472-.09-.619-.381-.703-.789-.09-.342-.189-.737-.548-1.01l-.103-.045-.148.026c-.926.103-1.778-.08-2.568-.669l-.14-.062-.084.054c-.387.077-.503-.099-.769-.489-.215-.337-.497-.745-1-.79l-.206-.018c-.153.018-.323.035-.503.117-.376.184-.798.174-1.238.174-.071-.016-.144-.016-.207-.016-.741 0-1.521.097-2.02.987-.116-.009-.223-.009-.335-.009-1.199.052-1.692 1.094-2.137 2.014-.273.615-.597 1.253-1.109 1.593-.629.58-.934 1.307-.934 2.173.019.404.1.834.244 1.292-.176.256-.346.718-.333.898 0 .196.175.12.23.247v.058c-.073.192-.157.404-.157.654 0 .288.138.571.314.808.017 1.715 1.328 2.757 2.566 3.617.682 1.509 1.984 1.795 3.276 2.057 0 0 .481.135.705.17l-2.738 4.496-7.319 12.013-4.537 7.509-3.505 5.834c-.05-.044-.121-.076-.121-.076l-.724-.2-.511.151-.798.378c-.756.206-.866.456-.916 1.058l-.045.389c-.045.056-.161.124-.161.124-.26.043-.507.161-.709.667-.054.135-.073.135-.31.077-.049-.015-.116-.015-.18-.015h-.09c-.282 0-.65.118-.865.733l-.09.241-.215.786.018.464v.224c0 .318.053.645.242.937-.077.163-.126.449-.126.449.049.376.434.66.754.879 0 0 .16.159.256.211l-2.975 5.001-1.85 3.059.04.109c.338.699.611.94 1.217.923.08 0 .183-.005.273-.005l.112-.015 1.958-3.263s2.691-4.418 2.89-4.758l.291.144c.612.187 1.251.447 2.231-.297.372-.301 1.274-1.042 2.244-1.584.906-.881 1.543-1.128 2.181-1.369.494-.183 1-.417 1.578-.898 1.509-1.763 3.815-3.005 6.258-4.262 0 0 2.189-.781 3.173-1.698.946-.869 1.885-2.261 1.885-2.261 1.87-1.952 3.621-3.833 5.874-5.232l.052-.019c.863-.597 1.541-1.432 2.17-2.248.436-.512.856-1.041 1.359-1.513.305-.224.61-.458.844-.69a2.3 2.3 0 0 1 .51-.342c.563-.288 1.304-.477 1.769-.462 1.463-.032 2.858.219 4.3.498 1.859.317 3.751.673 5.928.4 1.01.179 1.709.937 2.5 1.821l.324.356c0 .052 0 .099-.109.205l-.202.638c.122.471-.013.641-.247.875a2.1 2.1 0 0 0-.587 1.001c-.49 2.895-1.718 4.72-3.574 6.719-3.046 3.433-7.166 4.589-11.16 5.711-3.249.872-6.596 1.827-9.379 3.965l-1.167.937c-1 .873-1.795 1.539-3.244 1.883-.817.118-1.58-.178-2.375-.471-.731-.281-1.494-.586-2.355-.569 0 0-.086-.017-.239-.026h-.619c-1.289.026-3.731.314-5.825 2.014-2.805 2.257-4.874 6.938-4.614 9.923l.109.892.071.858c.211 1.225.551 2.308.897 3.347.427 1.28.872 2.607 1.023 4.027v.03l.049.076c.146.217.314.303.464.309h.112c.129-.006.237-.047.327-.056l.234-.036 1.122 2.441c.744 1.737 1.53 3.536 2.863 5.056.152.244.318.343.492.356h.127a1.77 1.77 0 0 0 .413-.176s.197-.052.257-.094l1.924 2.873c1.651 2.266 3.344 4.627 3.402 7.518 0 .333-.019.68-.058 1.045-.279 1.431-1.405 2.736-2.806 3.226l-.108.047-.036.084a2.106 2.106 0 0 0-.134.677c0 .198.026.387.112.563a.987.987 0 0 0 .705.578 5.1 5.1 0 0 0 .952.138h.475c1.301-.073 2.603-.649 3.654-1.606.052-.053.206-.068.322-.068h.189l.323-.009h.206c2.01-.475 3.258-2.613 3.716-4.268 0 0 .252-1.081.327-1.369 0 0 .108-.026.194-.026.412.017 1.257.26 1.813.412l1.984.503c1.193-.045 2.019.808 2.949 1.715 1.116 1.096 2.265 2.208 4.021 1.615.344.128.488.324.497.629 0 .179-.045.413-.09.695l-.103.937v.092c0 .376.328.561.516.675.199.114.296.185.296.281l-.017.035c-.279.238-.394.484-.394.696 0 .368.259.712.443.965l.394.671.096.086a8.524 8.524 0 0 0 2.431.449h.566c1.493-.077 2.778-.6 3.688-1.575l.137-.112-.051-.116c-.224-.853-.521-1.617-.916-2.276l-.067-.05-.055-.049c-.312-.103-.385-.363-.51-.757-.096-.369-.211-.752-.542-1.019-1.684-.752-2.761-2.289-3.731-3.776l-.251-.395c1.221.103 2.428.782 3.222 1.427.234.144.44.221.655.24h.217c.385-.038.752-.24 1.094-.436.378-.221.718-.408 1.094-.408.234.071.396.167.464.264a.4.4 0 0 1 .031.17c0 .135-.031.333-.099.525-.063.208-.144.498-.144.713a.902.902 0 0 0 .35.684c.022.533.183.95.567 1.278.798.798 2.309.834 3.145.834h.193c1.077-.053 2.543-.268 3.007-1.579l.035-.093-.035-.114a24.069 24.069 0 0 0-1.67-2.938l-.032-.054-.086-.01c-.681-.237-1.12-1.051-1.461-1.903l-.095-.167h-.153c-.889-.052-1.493-.639-2.104-1.277-.638-.67-1.292-1.337-2.257-1.463l-2.517-.413c-2.523-.355-4.938-.714-6.265-2.971a3.942 3.942 0 0 1-.234-1.229c-.019-.638.179-1.302.548-1.9l.305-.395c2.76-3.209 5.133-6.01 5.447-10.061l-.202-1.645c-.041-.496-.103-.894-.112-1.233-.026-.587.189-.976.744-1.111l1.141-.046c4.681-.152 10.282-.876 14.63-3.31 4.389-2.308 7.682-4.934 11.66-11.561l1.221.432c.914.273 2.274.609 3.088-.49.448-1.478 1.333-2.779 2.118-4.013l.457-.661c1.167-1.974 1.561-4.316 2.019-6.541 1.006-1.392 1.521-3.062 2.039-4.696.357-1.174 0-2.854.564-3.935.825-1.355 2.331-2.481 3.088-2.975.333.367 1.444 1.023 1.795 1.116.35.116.674.238.857.558.035.093.099.174.099.26.013.318-.247.548-.67.888-.407.305-.886.67-.869 1.275v.143l.09.067c.188.153.304.329.304.499 0 .206-.116.417-.269.718-.198.288-.368.687-.323 1.049v.18l.048.064c1.829 2.84 3.795 4.598 5.805 5.26l.243.09.447-1.38c.196-.561.234-1.18.243-1.803.009-.83.009-1.651.591-2.231l.109-.12-.556-2.609c-.323-1.395-.677-2.857-.692-4.379l.015-.715c-.329-1.561-.899-2.193-1.977-2.767 1.715-1.369 3.662-2.805 5.876-3.331 1.188-.243 1.283-.982 1.274-1.657v-.462c0-.443.035-.825.351-1.12a.345.345 0 0 1 .268-.086c.148 0 .31.077.548.196.871.487 1.294-.016 1.696-.439l.234-.245c2.85.267 3.588-1.608 4.273-3.434l.363-.903c.218-.561.65-1.902.218-2.575z" clip-rule="evenodd"/>
        <path d="M237.03 62.887l15.843-15.3c-.323-.336-.643-.68-.968-1.015l-15.844 15.3c.328.334.645.677.969 1.015zm-12.702-11.576l13.559-17.356c-.367-.288-.734-.58-1.104-.866l-13.558 17.356c.368.286.737.576 1.103.866zm9.686 8.511l15.297-15.842c-.333-.327-.677-.645-1.016-.966l-15.297 15.841c.337.324.681.642 1.016.967zm-6.361-5.788l14.161-16.874c-.357-.3-.702-.619-1.063-.918l-14.156 16.874c.359.3.703.615 1.058.918zm12.3 12.006l16.369-14.74c-.311-.35-.606-.712-.92-1.058l-16.375 14.742c.316.345.614.706.926 1.056zm15.026 20.917l19.077-11.013c-.232-.406-.464-.814-.7-1.216l-19.074 11.013c.235.404.465.81.697 1.216zm-12.21-17.667l16.874-14.158c-.299-.36-.615-.703-.918-1.06L241.851 68.23c.301.355.619.7.918 1.06zm10.028 13.962l18.678-11.673c-.245-.396-.507-.785-.755-1.18L252.037 82.07c.251.397.513.784.76 1.182zm-4.788-7.145l17.818-12.947c-.273-.378-.534-.765-.811-1.14l-17.818 12.944c.276.378.538.765.811 1.143zm-2.569-3.447l17.354-13.56c-.284-.37-.574-.735-.866-1.103l-17.354 13.56c.288.366.58.733.866 1.103zm-35.296-31.054l11.013-19.077c-.404-.236-.81-.468-1.216-.7l-11.013 19.077c.404.232.812.462 1.216.7zm-27.573-11.902l6.072-21.175c-.447-.13-.897-.256-1.35-.381l-6.07 21.173c.449.127.901.252 1.348.383zm-8.333-2.126l4.58-21.55c-.047-.01-.095-.023-.144-.035l-1.225-.26-4.578 21.529c.46.093.911.215 1.367.316zm4.191.967l5.326-21.357-1.208-.299-.155-.037-5.328 21.377c.452.11.914.2 1.365.316zm8.247 2.44l6.809-20.952c-.064-.02-.129-.045-.193-.066l-1.14-.37-6.804 20.938c.447.142.885.302 1.328.45zm19.731 8.487l10.334-19.436-.931-.496c-.101-.054-.206-.104-.308-.159L205.16 38.834c.413.217.836.417 1.247.638zm50.644 51.253l19.451-10.343c-.052-.101-.103-.206-.159-.309l-.494-.931-19.437 10.334c.22.411.422.836.639 1.25zm-43.238-46.88l11.673-18.68c-.395-.25-.784-.51-1.182-.757L212.633 43.09c.398.245.785.505 1.18.756zm7.106 4.843l12.949-17.819c-.378-.276-.765-.54-1.145-.813l-12.946 17.82c.381.273.768.535 1.142.812zm-26.174-14.724l8.251-20.421-.675-.271c-.207-.084-.419-.165-.626-.249l-8.255 20.425c.436.174.873.337 1.305.516zm3.944 1.715l8.96-20.124c-.424-.192-.849-.389-1.279-.578l-8.96 20.126c.43.187.855.384 1.279.576zm62.093 62.794l20.126-8.96c-.191-.428-.385-.852-.58-1.277l-20.122 8.96c.191.426.389.849.576 1.277zM201.33 259.022l9.646 19.78 1.26-.617-9.657-19.799c-.419.206-.826.434-1.249.636zm1.249-221.51l9.657-19.8-1.26-.616-9.646 19.778c.423.204.83.43 1.249.638zm-11.834-5.126l7.526-20.681-1.319-.48-7.529 20.69c.44.157.885.308 1.322.471zm-1.322 231.597l7.529 20.689 1.319-.481-7.526-20.679c-.437.163-.882.314-1.322.471zm69.588-169.43l19.776-9.646-.615-1.26-19.801 9.657c.208.419.438.828.64 1.25zM147.236 271.146v22.027c.234.002.466.019.699.019.236 0 .468-.017.703-.019v-22.027c-.235 0-.467.016-.703.016-.233 0-.465-.016-.699-.016zm22.783-244.4l3.825-21.691c-.461-.083-.919-.169-1.381-.247L168.639 26.5c.462.076.92.162 1.38.245zm47.396 19.45l12.32-18.265c-.047-.031-.092-.067-.139-.099l-.98-.66c-.014-.01-.029-.017-.043-.028l-12.32 18.265c.389.26.776.524 1.162.788zm13.487 10.66l14.74-16.373c-.015-.014-.03-.031-.047-.046h-.002c-.329-.301-.677-.578-1.01-.875L229.845 55.93c.35.313.709.61 1.057.926zm19.572 22.776l18.265-12.32c-.004-.006-.005-.011-.009-.015l-.696-1.032c-.026-.04-.054-.077-.08-.115l-18.265 12.32c.263.386.527.773.785 1.162zm13.497 26.83l20.69-7.53-.48-1.32-20.682 7.528c.161.439.314.881.472 1.322zm3.685 12.359l21.377-5.329-.037-.156-.301-1.206-21.355 5.324c.116.453.204.913.316 1.367zm-1.094-4.159l21.175-6.072c-.125-.451-.252-.899-.383-1.348l-21.173 6.07c.129.449.256.9.381 1.35zm2.061 8.35l21.529-4.576-.26-1.225c-.011-.048-.025-.097-.036-.146l-21.547 4.58c.097.458.221.909.314 1.367zm-3.272-12.477l20.937-6.803-.372-1.145-.064-.187-20.952 6.809c.146.443.307.881.451 1.326zm-2.916-8.092l20.427-8.25c-.084-.21-.163-.42-.247-.627l-.275-.677-20.417 8.251c.176.432.34.869.512 1.303zm8.111 33.323l21.912-2.302-.088-.845c-.021-.185-.051-.365-.07-.548l-21.909 2.302c.05.466.108.928.155 1.393zm-1.162-8.52l21.692-3.824c-.079-.462-.165-.922-.245-1.38l-21.693 3.824c.084.46.168.918.246 1.38zm-5.885 63.51l20.682 7.527.48-1.318-20.69-7.531c-.158.441-.309.885-.472 1.322zm7.374-50.702l21.97-1.535c-.032-.468-.071-.933-.107-1.399l-21.971 1.537c.037.466.078.93.108 1.397zm-.847-8.555l21.813-3.065c-.064-.464-.113-.932-.178-1.394l-21.813 3.066c.068.461.114.929.178 1.393zm-11.653 71.093l19.799 9.657.615-1.26-19.776-9.646c-.202.421-.432.83-.638 1.249zM162.421 3.428l-2.304 21.912c.468.044.929.104 1.395.155l2.304-21.908c-.185-.021-.366-.05-.55-.071l-.845-.088zm93.991 202.992l19.437 10.336.492-.924.161-.318-19.451-10.343c-.217.413-.419.839-.639 1.249zm5.511-11.662l20.417 8.249.268-.658c.086-.215.168-.43.254-.643l-20.427-8.253c-.172.434-.336.873-.512 1.305zm-1.717 3.944l20.122 8.96c.195-.427.389-.851.58-1.279l-20.126-8.96c-.187.428-.383.853-.576 1.279zm-5.924 11.454l19.074 11.013c.236-.404.468-.809.7-1.215l-19.077-11.015c-.232.408-.462.814-.697 1.217zm-9.708 14.183l17.354 13.558c.292-.364.582-.731.866-1.101l-17.354-13.558c-.284.368-.576.735-.866 1.101zm-5.545 6.574l16.373 14.741c.314-.345.609-.708.92-1.056l-16.369-14.74c-.312.348-.61.71-.924 1.055zm13.008-17.087l18.683 11.673c.248-.395.508-.782.755-1.18l-18.678-11.673c-.247.396-.509.783-.76 1.18zm-10.186 13.842l16.874 14.157c.301-.356.619-.7.918-1.059l-16.876-14.16c-.297.361-.615.705-.916 1.062zm5.347-6.738l17.818 12.949c.277-.376.54-.763.811-1.143l-17.818-12.947c-.273.38-.535.767-.811 1.141zm17.702-34.239l20.951 6.805.069-.198.368-1.134-20.937-6.803c-.144.447-.305.883-.451 1.33zm28.263-39.444h-22.032c.002.235.019.465.019.701 0 .236-.017.466-.019.701h22.032c.001-.235.016-.465.016-.701 0-.236-.015-.466-.016-.701zm-22.105-2.895l22.011-.771c-.013-.465-.017-.937-.035-1.402l-22.01.768c.017.468.021.937.034 1.405zm-4.877 38.23l21.175 6.072c.129-.447.256-.897.381-1.348l-21.175-6.07c-.125.448-.252.899-.381 1.346zm-30.12 51.442l15.844 15.3c.327-.335.645-.677.968-1.016l-15.843-15.299c-.324.338-.641.681-.969 1.015zm34.704-76.784l21.971 1.538c.034-.468.075-.932.107-1.399l-21.97-1.535c-.032.467-.071.931-.108 1.396zM147.236 2.723v22.03c.234-.003.466-.018.699-.018.236 0 .468.015.703.017V2.722c-.235 0-.467-.018-.703-.018-.233 0-.465.019-.699.019zm123.788 150.226l22.01.768c.018-.465.022-.935.035-1.402l-22.011-.769c-.013.468-.017.937-.034 1.403zm-3.684 25.495l21.355 5.322.301-1.201.037-.159-21.377-5.331c-.112.454-.2.914-.316 1.369zm3.051-16.919l21.909 2.302c.019-.185.049-.367.07-.552l.088-.841-21.912-2.302c-.047.465-.105.927-.155 1.393zm-2.082 12.726l21.547 4.582c.011-.053.026-.101.036-.154l.26-1.219-21.529-4.576c-.093.46-.217.909-.314 1.367zm.829-4.221l21.693 3.826c.08-.46.166-.918.245-1.38l-21.692-3.824c-.078.46-.162.92-.246 1.378zm.71-4.239l21.813 3.066c.065-.463.114-.931.178-1.395l-21.813-3.063c-.064.462-.11.93-.178 1.392zm-43.253 76.991l14.158 16.872c.361-.299.704-.615 1.061-.918l-14.159-16.872c-.357.303-.701.619-1.06.918zm-62.209 27.255l3.066 21.812c.463-.061.931-.11 1.393-.177l-3.067-21.813c-.462.067-.93.116-1.392.178zm-4.269.52l2.304 21.911.87-.091c.175-.017.347-.047.525-.066l-2.304-21.91c-.466.053-.927.111-1.395.156zm12.754-1.921l4.578 21.528 1.204-.258c.056-.011.111-.026.165-.037l-4.58-21.549c-.456.099-.907.221-1.367.316zm-4.232.759l3.826 21.693c.46-.078.918-.162 1.379-.247l-3.825-21.691c-.46.083-.918.169-1.38.245zm8.425-1.728l5.328 21.377c.058-.015.117-.026.174-.039l1.189-.297-5.326-21.357c-.451.116-.913.208-1.365.316zm-34.896 25.379c.466.017.935.021 1.403.036l.768-22.009c-.467-.015-.937-.019-1.402-.038l-.769 22.011zm13.661-268.032c.467.028.933.071 1.399.105l1.535-21.97c-.466-.034-.929-.077-1.399-.107l-1.535 21.972zm-4.296 246.059l.769 22.009c.467-.015.937-.019 1.403-.036l-.769-22.011c-.466.019-.935.023-1.403.038zm0-246.248c.468.013.937.017 1.403.036l.769-22.011c-.466-.017-.936-.02-1.403-.036l-.769 22.011zm4.296 246.059l1.537 21.97c.468-.028.931-.071 1.397-.105l-1.535-21.97c-.466.034-.932.077-1.399.105zm41.581-10.087l8.96 20.122c.43-.187.855-.386 1.279-.578l-8.96-20.124c-.424.194-.849.389-1.279.58zm25.815-15.345l13.56 17.355c.368-.286.737-.576 1.102-.866l-13.559-17.354c-.366.29-.735.579-1.103.865zm-3.448 2.57l12.946 17.818c.38-.273.767-.535 1.145-.813l-12.949-17.819c-.374.277-.761.541-1.142.814zm-38.554 18.553l6.07 21.175c.453-.127.903-.252 1.35-.381l-6.072-21.177c-.447.133-.899.258-1.348.383zm48.622-26.609l14.738 16.37c.35-.312.715-.606 1.059-.922l-14.74-16.372c-.348.314-.707.613-1.057.924zm-17.212 12.842l11.671 18.68c.398-.245.786-.507 1.182-.758l-11.673-18.678c-.395.251-.782.509-1.18.756zM168.845 4.224c-.462-.065-.93-.114-1.393-.175l-3.066 21.81c.462.062.93.11 1.392.178l3.067-21.813zm16.503 261.137l6.804 20.938 1.183-.385.15-.049-6.809-20.952c-.443.145-.879.306-1.328.448zm23.58-10.369l11.013 19.075c.406-.232.814-.464 1.216-.7l-11.013-19.075c-.404.236-.812.468-1.216.7zm-15.488 7.456l8.255 20.425c.189-.077.381-.15.572-.226l.729-.294-8.251-20.419c-.432.177-.869.342-1.305.514zm11.72-5.384l10.342 19.451.325-.167.914-.488-10.334-19.436c-.411.223-.834.421-1.247.64zm27.838-20.023l15.297 15.843c.339-.323.683-.643 1.016-.967l-15.297-15.843c-.335.327-.679.645-1.016.967zM27.249 172.884L5.721 177.46l.256 1.202c.011.056.026.113.04.171l21.548-4.582c-.1-.458-.22-.907-.316-1.367zM76.096 47.876l-12.947-17.82c-.38.273-.766.537-1.142.811l12.946 17.82c.376-.276.763-.538 1.143-.811zM66.027 55.93l-14.74-16.368c-.347.31-.712.605-1.058.921l14.744 16.373c.346-.316.705-.613 1.054-.926zm6.62-5.485L59.09 33.09c-.37.286-.736.578-1.103.866l13.56 17.356c.366-.29.731-.58 1.101-.866zm-3.37 2.67L55.12 36.243c-.359.3-.703.617-1.06.918l14.158 16.874c.357-.303.7-.619 1.06-.918zM83.24 43.09L71.567 24.408c-.397.247-.786.507-1.18.758l11.673 18.68c.394-.25.781-.51 1.18-.756zm27.284-12.554l-6.803-20.939-1.137.368-.197.068 6.809 20.952c.444-.148.881-.308 1.328-.449zm-8.092 2.912L94.18 13.023c-.214.084-.427.167-.64.252l-.662.268 8.249 20.421c.432-.18.87-.342 1.305-.516zm-11.72 5.386L80.372 19.381c-.107.056-.213.107-.318.163l-.924.492 10.336 19.436c.412-.22.834-.421 1.248-.638zm-3.768 2.072L75.931 21.83c-.406.232-.813.464-1.215.7l11.013 19.076c.404-.237.81-.467 1.215-.699zm11.518-5.805l-8.96-20.124c-.43.19-.852.386-1.279.578l8.96 20.124c.426-.192.85-.389 1.28-.578zm16.188-5.78l-6.073-21.173c-.45.125-.899.25-1.348.381l6.072 21.175c.447-.13.898-.256 1.349-.383zM41.593 85.74L22.516 74.728c-.236.403-.467.81-.7 1.216l19.077 11.013c.232-.406.462-.812.7-1.216zm-5.925 11.455l-20.125-8.96c-.193.425-.39.85-.578 1.277l20.125 8.96c.188-.428.386-.85.578-1.277zm27.206-38.34L47.575 43.013c-.336.321-.679.64-1.015.966l15.3 15.842c.334-.325.676-.643 1.014-.967zM43.834 82.07L25.152 70.4c-.25.394-.51.783-.756 1.18l18.68 11.672c.246-.398.507-.785.756-1.182zm-4.373 7.406L20.023 79.142l-.486.914c-.058.109-.11.22-.168.326L38.82 90.725c.217-.413.417-.838.64-1.249zm17.382-24.492L40.471 50.242c-.314.346-.61.708-.922 1.058l16.37 14.74c.311-.35.61-.71.924-1.056zm2.968-3.112l-15.841-15.3c-.328.335-.645.677-.969 1.016l15.842 15.3c.323-.34.64-.682.968-1.016zm-5.79 6.358L37.15 54.07c-.303.358-.62.702-.92 1.06l16.873 14.16c.3-.362.617-.706.918-1.061zm-20.07 32.91l-20.419-8.251-.295.733c-.077.189-.15.38-.227.57l20.427 8.251c.172-.434.337-.871.515-1.303zm17.35-29.583l-17.357-13.56c-.29.368-.58.733-.868 1.103l17.357 13.56c.286-.37.576-.737.867-1.103zm-2.624 3.407L30.857 62.02c-.277.376-.539.763-.814 1.141l17.82 12.947c.273-.378.535-.765.814-1.143zM79.619 45.41L67.3 27.144a.281.281 0 0 1-.03.02l-1.002.676c-.045.03-.086.061-.13.091l12.32 18.266c.388-.264.773-.528 1.162-.788zm39.19-17.18l-5.33-21.375c-.052.01-.107.022-.159.035l-1.201.3 5.325 21.356c.45-.116.912-.206 1.365-.316zM46.184 78.47L27.919 66.15c-.028.04-.06.08-.088.123l-.68 1.013-.018.025 18.265 12.32c.26-.39.522-.776.786-1.162zm48.358-41.597l-9.645-19.778-1.26.615 9.656 19.8c.42-.207.827-.435 1.25-.637zm11.907-4.96l-7.529-20.69-1.318.48 7.527 20.682c.438-.163.881-.316 1.32-.471zm143.24 185.513l18.265 12.32.073-.104.71-1.055c.002 0 .002-.002.002-.002l-18.265-12.32c-.258.389-.522.774-.785 1.161zm-33.434 33.06l12.32 18.265c.006-.006.015-.009.023-.015l1.013-.684.126-.087-12.32-18.265c-.388.264-.773.526-1.162.786zm-137.797-.786l-12.32 18.265c.037.025.075.055.112.081l1.036.697.013.008 12.32-18.265c-.389-.26-.776-.522-1.161-.786zM24.723 147.948c0-.236.015-.466.017-.701H2.71c0 .235-.017.465-.017.701 0 .236.017.466.017.701h22.03c-.002-.235-.017-.465-.017-.701zm20.675 68.318l-18.265 12.32a.15.15 0 0 0 .008.013l.697 1.036.08.112 18.266-12.32c-.264-.387-.526-.772-.786-1.161zM37.501 93.304l-19.8-9.657-.616 1.26 19.776 9.646c.204-.42.43-.828.64-1.249zm95.107-89.788c-.185.018-.366.05-.55.07l2.302 21.909c.466-.05.928-.11 1.395-.155l-2.304-21.912-.843.088zm4.5 289.233c.465.034.931.077 1.398.105l1.538-21.97c-.47-.028-.934-.071-1.399-.105l-1.537 21.97zM123 27.262l-4.575-21.529-1.223.26-.149.034 4.58 21.551c.46-.101.908-.223 1.367-.316zm4.233-.761l-3.824-21.693c-.462.078-.92.164-1.38.247l3.824 21.69c.46-.082.92-.168 1.38-.244zm9.875-23.352l1.537 21.97c.465-.034.929-.077 1.399-.105l-1.538-21.972c-.467.03-.933.073-1.398.107zM36.862 201.343l-19.777 9.646.616 1.26 19.798-9.657c-.207-.419-.434-.828-.638-1.249zm-4.489-96.203l-20.681-7.527-.479 1.318 20.689 7.531c.157-.441.31-.883.471-1.322zm-.471 84.294l-20.689 7.531.479 1.318 20.681-7.527c-.162-.437-.314-.881-.471-1.322zm61.391 68.952l-9.657 19.799 1.26.617 9.646-19.78c-.422-.202-.83-.428-1.249-.636zM142.168 2.85l.769 22.01c.465-.018.935-.022 1.402-.035l-.768-22.01c-.468.014-.937.018-1.403.035zm-37.039 260.662l-7.527 20.679 1.318.481 7.529-20.689c-.439-.157-.882-.308-1.32-.471zm26.359-237.653l-3.067-21.81c-.462.061-.931.11-1.391.175l3.065 21.813c.462-.067.927-.116 1.393-.178zm-63.27 216.005l-14.16 16.872c.358.303.702.619 1.061.918l14.159-16.872c-.361-.299-.705-.615-1.06-.918zm-3.245-2.822l-14.744 16.372c.346.316.71.61 1.06.922l14.738-16.37c-.347-.311-.708-.61-1.054-.924zm6.571 5.545l-13.558 17.354c.367.29.733.58 1.103.868l13.558-17.357c-.37-.286-.735-.575-1.103-.865zm3.41 2.621l-12.947 17.821c.376.276.763.538 1.142.811l12.947-17.818c-.38-.273-.767-.537-1.143-.814zm-21.85-20.602l-16.875 14.16c.302.359.617.703.92 1.06l16.874-14.158c-.303-.357-.62-.701-.92-1.062zm28.956 25.446L70.386 270.73c.395.251.784.513 1.18.758l11.674-18.68c-.399-.247-.786-.505-1.18-.756zm-31.627-28.814l-17.357 13.56c.288.368.578.735.868 1.099L51.3 224.339c-.29-.366-.58-.733-.866-1.101zm5.486 6.62l-16.37 14.74c.312.348.608.711.922 1.056l16.372-14.741c-.316-.345-.613-.707-.924-1.055zm-8.056-10.069l-17.82 12.947c.273.38.537.765.814 1.143l17.818-12.949c-.277-.374-.539-.761-.812-1.141zm13.996 16.285l-15.3 15.843c.336.324.68.644 1.016.967l15.3-15.843c-.34-.322-.681-.64-1.016-.967zm-3.017-3.065l-15.841 15.299c.322.339.641.681.967 1.016l15.843-15.3c-.327-.334-.645-.677-.968-1.015zm58.602 34.342l-5.325 21.357 1.182.297c.06.011.12.024.178.039l5.33-21.377c-.453-.108-.915-.2-1.365-.316zm4.189.969l-4.58 21.549c.058.011.112.026.17.039l1.202.256L123 268.636c-.459-.095-.907-.217-1.367-.316zm4.22.83l-3.824 21.691c.46.085.918.169 1.38.247l3.824-21.693c-.46-.076-.92-.162-1.38-.245zm6.205 23.161c.176.019.348.049.524.066l.869.091 2.304-21.911c-.467-.045-.929-.103-1.395-.156l-2.302 21.91zm-5.028-.639c.462.067.927.116 1.391.177l3.067-21.812c-.464-.062-.931-.111-1.393-.178l-3.065 21.813zm-25.903-29.738l-8.249 20.419.718.29c.195.078.39.153.584.23l8.25-20.425c-.433-.172-.871-.337-1.303-.514zm-3.944-1.717l-8.96 20.126c.427.19.85.389 1.28.576l8.96-20.122c-.43-.189-.854-.386-1.28-.58zm-7.718-3.793L79.13 275.86l.907.483c.11.059.223.114.335.172l10.342-19.451c-.414-.219-.836-.417-1.248-.64zm-3.736-2.132l-11.013 19.075c.402.236.81.468 1.215.7l11.013-19.075c-.406-.232-.811-.464-1.215-.7zm23.467 10.621l-6.809 20.952.156.051 1.178.383 6.803-20.938c-.447-.142-.884-.303-1.328-.448zm4.105 1.279l-6.072 21.177c.449.129.898.254 1.348.381l6.073-21.175c-.451-.125-.9-.25-1.349-.383zM26.024 130.106L4.212 127.04c-.066.462-.114.93-.176 1.394l21.813 3.065c.061-.464.108-.932.175-1.393zm-1.023 25.738l-21.97 1.535c.03.467.072.931.105 1.399l21.972-1.538c-.035-.465-.077-.929-.107-1.396zm-.187-4.298l-22.01.769c.013.467.016.937.035 1.402l22.01-.768c-.02-.466-.023-.935-.035-1.403zm.668-17.173l-21.908-2.302c-.02.174-.049.348-.067.522l-.09.871 21.91 2.302c.045-.465.104-.927.155-1.393zm-.632 8.574l-22.011-.768c-.019.465-.022.937-.036 1.402l22.011.771c.014-.468.015-.937.036-1.405zm.258-4.29L3.136 137.12c-.033.466-.074.931-.104 1.399l21.97 1.535c.027-.467.07-.931.106-1.397zm4.584-25.345l-21.174-6.07c-.132.449-.258.897-.383 1.348l21.175 6.072c.125-.45.253-.901.382-1.35zm-1.16 4.142L7.178 112.13l-.298 1.19c-.015.058-.026.114-.039.172l21.375 5.329c.11-.454.202-.914.316-1.367zm2.44-8.245L10.02 102.4c-.022.071-.049.142-.07.213l-.366 1.119 20.94 6.803c.14-.445.3-.883.449-1.326zm-4.237 16.657l-21.691-3.824c-.084.458-.168.918-.247 1.38l21.691 3.824c.079-.462.163-.92.247-1.38zm.83-4.221l-21.549-4.58-.039.165-.256 1.206 21.528 4.576c.096-.458.215-.909.316-1.367zm-1.716 42.754l-21.813 3.063c.062.464.11.932.176 1.395l21.812-3.066c-.067-.462-.114-.93-.175-1.392zm7.588 29.054l-20.427 8.253c.079.194.156.392.232.585l.29.716 20.42-8.249c-.178-.432-.343-.871-.515-1.305zm1.654 3.97l-20.126 8.96c.188.428.385.852.578 1.279l20.125-8.96c-.194-.426-.39-.851-.578-1.279zm-9.764-37.291l-21.91 2.302.09.867c.018.178.046.348.067.526l21.908-2.302c-.05-.466-.11-.928-.155-1.393zm13.494 45.039L19.37 215.514c.06.111.114.225.172.335l.482.907 19.438-10.336c-.223-.41-.423-.836-.64-1.249zm-8.297-19.81l-20.94 6.803.361 1.107.075.225 20.953-6.805c-.148-.447-.307-.883-.45-1.33zm10.37 23.58l-19.077 11.013c.233.406.463.811.699 1.215l19.077-11.013c-.238-.403-.468-.809-.7-1.215zm2.184 3.705l-18.68 11.673c.246.398.506.785.757 1.18l18.678-11.673c-.249-.397-.51-.784-.755-1.18zm-16.59-43.994l-21.691 3.824c.079.462.163.92.247 1.38l21.69-3.826c-.083-.458-.167-.918-.246-1.378zm1.728 8.423l-21.375 5.331c.013.058.026.118.041.176l.296 1.184 21.354-5.322c-.114-.455-.206-.915-.316-1.369zm1.094 4.161l-21.175 6.07c.125.451.25.899.382 1.348l21.175-6.072c-.13-.447-.257-.898-.382-1.346zM34.175 141.455l12.198 1.268 1.603.325.039-.37-1.591-.436-11.814-4.976.29-2.792 12.612-2.484 1.625-.103.038-.368-1.609-.054-12.22-1.27.254-2.448 14.644 1.522 1.603-.757-.595 5.719-10.882 2.154-2.152-.043-.036.346 2.108.479 10.205 4.368-.477 4.571-16.152-1.68.309-2.971zM48.013 159.047l1.013-.229-.028-.256-1.045-.039-6.927-1.283.514 4.531 6.473-2.724zm-12.74 5.471l4.614-1.984-.628-5.522-4.943-.931-.27-2.377a370.77 370.77 0 0 1 6.842 1.268c1.05.205 2.034.404 2.949.594.914.189 1.731.358 2.453.505.722.148 1.334.271 1.835.369.5.097.858.164 1.073.202l1.4-1.109.648 5.713-15.56 6.91-.412-3.638zM37.763 176.712l14.19-3.931 1.202-1.333 1.186 4.275-15.653 4.333-.925-3.344zM50.164 197.199c-.692.305-1.37.445-2.037.421a4.479 4.479 0 0 1-1.892-.49 5.484 5.484 0 0 1-1.63-1.286 7.556 7.556 0 0 1-1.242-1.973 19.294 19.294 0 0 1-.567-1.422 11.6 11.6 0 0 1-.363-1.251 7.802 7.802 0 0 1-.17-1.133 6.572 6.572 0 0 1 .019-1.085l2.506-1.107a7.346 7.346 0 0 0-.315 1.287c-.058.406-.069.813-.033 1.219.037.404.117.821.247 1.249.127.425.299.885.518 1.379.172.391.376.725.61 1.006.235.28.497.499.787.654.288.156.6.234.935.242.334.007.684-.068 1.047-.229.35-.155.623-.342.819-.563.196-.224.34-.467.432-.733.092-.265.144-.542.159-.832.015-.29.017-.578.004-.866l-.142-2.936c-.017-.407 0-.813.052-1.211a3.56 3.56 0 0 1 1.152-2.187c.346-.321.798-.604 1.361-.852.767-.341 1.49-.502 2.175-.483.683.017 1.31.17 1.88.458.568.29 1.075.694 1.52 1.22.443.523.815 1.12 1.11 1.793.238.533.422 1.019.554 1.455a9.8 9.8 0 0 1 .287 1.193c.061.357.095.685.108.978.01.294.011.561.004.802l-2.312 1.023c.182-.72.242-1.442.178-2.169a6.851 6.851 0 0 0-.59-2.205c-.201-.46-.437-.823-.706-1.088a2.583 2.583 0 0 0-.83-.572 1.98 1.98 0 0 0-.847-.154 2.09 2.09 0 0 0-.771.176c-.342.15-.6.329-.778.533-.174.204-.3.428-.372.668a2.55 2.55 0 0 0-.105.776c.004.278.011.568.024.875l.124 2.891c.015.37-.006.759-.066 1.173-.06.411-.194.817-.4 1.219a4.393 4.393 0 0 1-.894 1.157c-.39.369-.907.696-1.55.98zM63.13 211.105c.395-.273.79-.572 1.186-.9.396-.329.761-.675 1.09-1.039.331-.365.621-.748.87-1.145.247-.398.42-.81.522-1.23.102-.419.115-.846.044-1.278-.07-.434-.258-.869-.559-1.305-.29-.421-.623-.739-1-.956a3.148 3.148 0 0 0-1.212-.398 4.466 4.466 0 0 0-1.334.054c-.46.084-.92.217-1.383.397a10.76 10.76 0 0 0-1.365.641c-.447.251-.868.511-1.26.784-.395.271-.79.57-1.183.895-.394.328-.76.676-1.096 1.044-.336.368-.63.754-.88 1.154-.253.402-.43.811-.537 1.23a3.15 3.15 0 0 0-.056 1.283c.067.434.25.868.548 1.298.306.445.652.776 1.036.997.385.222.792.361 1.22.413.429.054.876.038 1.34-.056a7.826 7.826 0 0 0 1.39-.421c.461-.187.912-.409 1.355-.664.443-.256.864-.521 1.264-.798zm2.003 2.861c-.598.413-1.217.772-1.86 1.081a9.953 9.953 0 0 1-1.953.699 7.642 7.642 0 0 1-1.973.217 6.047 6.047 0 0 1-1.932-.366 6.438 6.438 0 0 1-1.827-1.044c-.587-.467-1.139-1.075-1.653-1.821-.51-.739-.879-1.463-1.109-2.169a6.593 6.593 0 0 1-.338-2.052c.003-.66.11-1.302.323-1.922a7.41 7.41 0 0 1 .89-1.768c.378-.557.827-1.084 1.343-1.582a13.354 13.354 0 0 1 1.698-1.384 13.03 13.03 0 0 1 1.89-1.086 9.813 9.813 0 0 1 1.966-.685 7.635 7.635 0 0 1 1.977-.188 6.152 6.152 0 0 1 1.92.379c.623.23 1.222.572 1.794 1.027.574.454 1.11 1.041 1.608 1.763.748 1.083 1.204 2.14 1.37 3.163.165 1.021.102 1.997-.192 2.923-.293.925-.785 1.795-1.473 2.608a12.627 12.627 0 0 1-2.469 2.207zM70.959 231.807l4.963-12.604.91-1.399-.244-.232-1.096 1.251-8.636 9.085-1.636-1.556 10.143-10.671.36-1.75 4.01 3.811-4.613 11.806-.883 1.255.238.224.978-1.161 8.088-8.507 1.62 1.539L73.97 234.67l-3.011-2.863zM101.152 235.805l-2.259 4.245 4.026 2.093-.929 1.743-3.995-2.153-3.568 6.703-3.063-1.631 6.92-12.997-.1-1.771 8.911 4.744-.907 1.708-5.036-2.684zM119.992 249.978c.144-.458.271-.939.381-1.442.111-.501.184-.998.219-1.488a8.189 8.189 0 0 0-.02-1.438 4.188 4.188 0 0 0-.344-1.289 3.174 3.174 0 0 0-.752-1.036c-.324-.297-.739-.525-1.246-.684-.486-.152-.944-.199-1.374-.139a3.158 3.158 0 0 0-1.201.432 4.45 4.45 0 0 0-1.017.864c-.311.35-.593.737-.847 1.165a10.42 10.42 0 0 0-.681 1.347 15.303 15.303 0 0 0-.892 2.825 10.98 10.98 0 0 0-.221 1.496c-.039.5-.033.984.015 1.454.049.469.161.905.335 1.299.174.397.423.745.744 1.044.322.303.733.531 1.233.688.514.161.991.209 1.43.148.44-.064.846-.206 1.216-.427a4.11 4.11 0 0 0 1.021-.869c.307-.357.585-.752.834-1.184.251-.434.469-.886.662-1.36.191-.473.359-.942.505-1.406zm3.34 1.023a13.513 13.513 0 0 1-.802 1.995 10.074 10.074 0 0 1-1.107 1.755 7.508 7.508 0 0 1-1.424 1.383 6.002 6.002 0 0 1-1.746.9 6.497 6.497 0 0 1-2.084.303c-.749-.008-1.557-.148-2.423-.417-.857-.269-1.593-.612-2.209-1.029a6.556 6.556 0 0 1-1.529-1.408 5.924 5.924 0 0 1-.928-1.715 7.336 7.336 0 0 1-.387-1.939 9.974 9.974 0 0 1 .084-2.074c.101-.711.264-1.423.486-2.137.223-.707.496-1.381.821-2.02a9.95 9.95 0 0 1 1.13-1.749c.428-.523.909-.98 1.44-1.365a6.162 6.162 0 0 1 1.748-.884 6.532 6.532 0 0 1 2.046-.294c.731.006 1.517.138 2.351.4 1.258.395 2.266.945 3.028 1.65.759.705 1.309 1.511 1.647 2.421.339.911.486 1.899.443 2.964a12.553 12.553 0 0 1-.585 3.26zM138.982 261.442l-3.875-12.982-.146-1.661-.336-.034-.09 1.663-1.188 12.477-2.247-.213 1.395-14.658-.795-1.599 5.505.526 3.657 12.137.08 1.529.325.032.053-1.518 1.112-11.685 2.226.212-1.539 16.167-4.137-.393zM163.292 252.569c-.107-.969-.277-1.827-.518-2.577-.241-.748-.574-1.369-1.001-1.861a3.58 3.58 0 0 0-1.608-1.06c-.645-.217-1.43-.275-2.352-.172l-1.418.155 1.367 12.481 1.352-.148c.945-.103 1.717-.337 2.313-.701a3.641 3.641 0 0 0 1.358-1.423c.309-.589.496-1.278.563-2.069.067-.791.051-1.666-.056-2.625zm3.501-.429c.133 1.205.104 2.325-.084 3.357-.187 1.034-.56 1.945-1.113 2.732-.552.788-1.304 1.437-2.25 1.942-.948.506-2.117.837-3.508.989l-5.347.585-1.602-14.635-1.083-1.408 6.543-.717c1.364-.149 2.546-.071 3.546.234 1.001.303 1.844.78 2.528 1.429.687.649 1.222 1.444 1.607 2.388.387.944.641 1.98.763 3.104zM177.511 257.968l-4.307-14.08-1.326-1.18 10.183-3.115.564 1.847-6.004 1.837 1.413 4.617 4.333-1.346.578 1.889-4.351 1.284 1.649 5.392 6.27-1.921.567 1.85-9.569 2.926zM195.396 251.503l-6.607-13.158-1.505-.94 9.515-4.779.867 1.727-5.61 2.818 2.168 4.316 4.043-2.057.888 1.765-4.075 1.998 2.53 5.038 5.861-2.944.866 1.726-8.941 4.49zM220.031 236.125l-9.713-11.064-1.694-.531 8.002-7.026 1.274 1.451-4.717 4.143 3.185 3.63 3.394-3.011 1.306 1.485-3.44 2.96 3.72 4.237 4.93-4.329 1.273 1.453-7.52 6.602zM238.791 216.545l-13.023-3.738-1.478-.773-.207.266 1.35.972 9.866 7.729-1.391 1.777-11.593-9.079-1.774-.193 3.411-4.354 12.193 3.468 1.333.759.2-.258-1.249-.864-9.238-7.238 1.378-1.759 12.784 10.014-2.562 3.271zM251.343 195.879l-1.851-.754 1.522-3.744-11.037-4.492-1.379 3.393-2.154-.877 2.594-6.376 13.191 5.366 1.412-3.475 1.854.754-4.152 10.205zM259.06 172.66l-.655 3.043a2841.989 2841.989 0 0 1-7.42-5.018 524.64 524.64 0 0 0-2.005-1.342c-.625-.419-1.184-.793-1.676-1.126a53.07 53.07 0 0 0-1.15-.758l-1.668 7.739-2.469-.531 2.332-10.838 1.24.268 13.471 8.563zM261.848 147.427l-.439 11.11-1.56-.061a288.11 288.11 0 0 1-1.674-1.876 48.129 48.129 0 0 0-1.709-1.833c-.28-.288-.583-.596-.907-.924a37.655 37.655 0 0 0-1.023-.991 20.947 20.947 0 0 0-1.114-.959 10.55 10.55 0 0 0-1.177-.817 7.51 7.51 0 0 0-1.213-.582 4.036 4.036 0 0 0-1.221-.251c-.816-.031-1.45.186-1.902.655-.453.469-.698 1.139-.733 2.007-.017.48.011.923.088 1.337.078.409.181.785.31 1.129.129.342.273.649.43.92.159.275.305.511.438.709l-2.547-.101c-.049-.12-.128-.308-.236-.557a6.957 6.957 0 0 1-.322-.976c-.104-.397-.19-.877-.258-1.437a12.285 12.285 0 0 1-.056-1.963 7.536 7.536 0 0 1 .316-1.893c.185-.611.47-1.15.851-1.614.382-.463.868-.83 1.459-1.094.593-.265 1.303-.381 2.134-.347.568.02 1.122.145 1.664.374a8.568 8.568 0 0 1 1.612.907c.531.375 1.057.815 1.578 1.314a39.997 39.997 0 0 1 2.394 2.529c.279.323.561.65.843.985l.833.976.772.896.318-7.991 2.051.419zM246.339 134.467l1.023.195 7.918 2.919-.574-4.354-7.361.971-1.036.047.03.222zm9.689-4.619l4.264-.563.417 3.151-4.266.563.885 6.703-1.326.175-11.253-4.226-.557-4.241 10.099-1.334-.382-2.895 1.737-.228.382 2.895zM64.338 77.095c-.372-.297-.73-.496-1.071-.593a2.1 2.1 0 0 0-.988-.054 2.25 2.25 0 0 0-.901.402 4.146 4.146 0 0 0-.804.78l-1.517 1.892 4.395 3.522 1.488-1.857c.616-.769.857-1.49.722-2.171-.133-.68-.574-1.32-1.324-1.921zm9.354 7.25l-7.497-1.954-1.376 1.719 5.52 4.422-2.117 2.643-11.433-9.16-1.764-.21 4.709-5.879c.544-.68 1.085-1.232 1.621-1.657.535-.426 1.081-.707 1.635-.845a3.247 3.247 0 0 1 1.705.043c.584.165 1.194.503 1.826 1.01.46.368.835.767 1.127 1.195.29.43.496.868.614 1.315a3.7 3.7 0 0 1 .1 1.357c-.05.457-.183.898-.401 1.324l8.086 1.74-2.355 2.937zM81.296 76.396l-9.55-11.108-1.678-.548 8.032-6.906 1.253 1.458-4.737 4.072 3.134 3.642 3.408-2.96 1.283 1.492-3.453 2.91 3.656 4.253 4.949-4.253 1.254 1.457-7.55 6.491zM106.171 59.416l-5.818-10.727-.634-1.5-.325.176.539 1.552 2.554 12.496-2.455 1.332-9.13-8.958-.997-1.275-.325.174.86 1.352 5.83 10.747-2.153 1.167-6.983-12.88-1.524-.89 5.028-2.726 7.888 7.723 1.175 1.792.305-.166-.793-2-2.15-10.833 4.018-2.178 7.703 14.205-2.613 1.417zM121.125 48.037l1.566 5.48-3.309.946-1.559-5.46-7.565-8.74 3.761-1.073 4.821 5.932.569 1.174.224-.064-.116-1.305.948-7.58 2.452-.7-1.792 11.39zM156.104 50.429l.339-12.199.2-1.616-.368-.01-.313 1.613-4.047 12.096-2.792-.079-3.416-12.324-.223-1.604-.368-.011.067 1.6-.338 12.221-2.448-.067.407-14.645-.875-1.533 5.721.159 2.958 10.635.118 2.14.348.007.316-2.126 3.564-10.454 4.569.127-.447 16.152-2.972-.082zM175.377 40.451l.15-1.023-.249-.065-.407.958-3.658 5.98 4.395 1.133-.231-6.983zm.552 13.785l-.202-4.991-5.356-1.384-2.622 4.264-2.305-.597a308.892 308.892 0 0 1 1.851-3.052 314.28 314.28 0 0 1 3.362-5.382l1.343-2.1c.395-.62.726-1.143.997-1.573.267-.43.458-.74.567-.928l-.532-1.694 5.54 1.43.884 16.916-3.527-.91zM198.375 50.633c.208-.428.322-.82.341-1.176a2.125 2.125 0 0 0-.169-.974 2.264 2.264 0 0 0-.592-.791 4.233 4.233 0 0 0-.941-.61l-2.183-1.054-2.451 5.07 2.141 1.035c.886.429 1.644.502 2.278.22.632-.281 1.157-.855 1.576-1.72zm-4.982 10.737l.234-7.746-1.982-.958-3.08 6.368-3.048-1.474 6.378-13.19-.187-1.765 6.781 3.279c.784.38 1.444.783 1.977 1.211.533.427.929.896 1.188 1.407.26.508.372 1.066.34 1.671-.032.606-.226 1.274-.58 2.005-.256.53-.561.984-.912 1.364-.356.38-.737.676-1.147.892-.409.215-.843.35-1.299.402-.455.052-.915.02-1.381-.098l.109 8.272-3.391-1.64zM215.411 58.602l-8.414 11.484-2.768-2.029 8.416-11.482-3.237-2.373 1.135-1.55 9.268 6.79-1.137 1.55-3.263-2.39zM215.149 77.023l10.267-10.452.372-1.748 3.149 3.093-11.325 11.527-2.463-2.42zM228.327 92.338l7.159-11.422 1.144-1.2-.196-.272-1.3 1.023-10.107 7.308-1.315-1.821 11.871-8.584.673-1.644 3.224 4.459-6.67 10.706-1.092 1.064.19.263 1.171-.957 9.465-6.843 1.301 1.803-13.094 9.468-2.424-3.35zM52.488 106.053a3.412 3.412 0 0 1-3.413 3.411 3.411 3.411 0 1 1 0-6.824 3.414 3.414 0 0 1 3.413 3.413zM249.041 106.053a3.413 3.413 0 1 1-3.413-3.413 3.413 3.413 0 0 1 3.413 3.413z"/>
    </g>
</svg>
