<svg xmlns="http://www.w3.org/2000/svg" width="60" height="60" fill="none" viewBox="0 0 60 60">
    <path fill="#BC9366" d="M60 0v60H0V0z"/>
    <path fill="#fff" fill-rule="evenodd" d="M35.13 33.865l1.271-1.767c2.401-3.082 2.053-8.148-.743-10.841-1.51-1.455-3.52-2.257-5.657-2.257s-4.146.802-5.657 2.257c-2.797 2.693-3.144 7.759-.753 10.829l1.28 1.78.578.803L30 41l4.552-6.33.577-.805zm-2.135-7.232c0-1.55-1.31-2.812-2.92-2.812-1.61 0-2.92 1.262-2.92 2.813 0 1.55 1.31 2.812 2.92 2.812 1.61 0 2.92-1.262 2.92-2.813z" clip-rule="evenodd"/>
</svg>
