<svg width="154" height="32" viewBox="0 0 154 32" fill="none" xmlns="http://www.w3.org/2000/svg">
<rect width="154" height="32" fill="white"/>
<path d="M110.915 18.6797V18.4685L110.865 18.4587C110.442 18.4083 110.269 18.0525 110.129 17.5197L110.112 17.4831C109.287 14.3251 106.758 4.73249 106.502 3.77397C106.474 3.67629 106.469 3.65878 106.417 3.65878L106.361 3.66123L104.426 4.04382L104.421 4.07517C104.142 5.21115 101.667 15.1354 101.078 17.5311C100.945 18.0525 100.716 18.407 100.313 18.4587L100.25 18.4685V18.6797H102.968V18.4685L102.914 18.4587C102.609 18.4217 102.434 18.1954 102.427 17.8466C102.427 17.7505 102.438 17.6431 102.462 17.5311L103.303 14.0568H106.812L106.907 14.4309C107.284 15.8864 107.533 16.864 107.707 17.5039V17.5197L107.715 17.5344C107.745 17.628 107.754 17.6968 107.783 17.764C107.811 17.8865 107.829 17.9943 107.829 18.09C107.829 18.2984 107.745 18.4335 107.52 18.4587L107.476 18.4685V18.6797H110.915V18.6797ZM106.446 12.6734H103.636C104.305 9.93905 104.97 7.14773 104.97 7.14773C104.97 7.14773 104.977 7.13633 104.985 7.09278L105.01 7.18029C105.599 9.40545 106.061 11.2281 106.446 12.6734" fill="#1D1D1B"/>
<path d="M152.17 4.02997V4.35844H152.423C152.46 4.35844 152.495 4.35681 152.525 4.35355C152.556 4.34989 152.583 4.34297 152.606 4.33157C152.629 4.32017 152.647 4.30389 152.66 4.28232C152.673 4.26075 152.68 4.22982 152.68 4.19074C152.68 4.1537 152.673 4.12399 152.66 4.10241C152.647 4.08084 152.629 4.06497 152.606 4.0548C152.583 4.04421 152.556 4.0377 152.525 4.03445C152.495 4.0316 152.46 4.02997 152.423 4.02997H152.17V4.02997ZM152.423 3.85006C152.466 3.85006 152.515 3.85332 152.567 3.85943C152.62 3.86553 152.669 3.88059 152.714 3.9046C152.76 3.92821 152.797 3.9624 152.827 4.00799C152.857 4.05357 152.873 4.11503 152.873 4.194C152.873 4.24162 152.866 4.28232 152.855 4.31611C152.844 4.34989 152.829 4.3792 152.81 4.40321C152.792 4.42682 152.77 4.44594 152.744 4.46141C152.718 4.47728 152.69 4.49112 152.662 4.50374L152.854 4.86599L152.662 4.91565L152.466 4.53142H152.17V4.89041H151.977V3.85006H152.423ZM151.482 4.37065C151.482 4.49438 151.506 4.6112 151.553 4.72028C151.601 4.82977 151.666 4.92501 151.748 5.00519C151.831 5.08578 151.927 5.14969 152.037 5.19731C152.148 5.24493 152.266 5.26854 152.392 5.26854C152.518 5.26854 152.636 5.24493 152.747 5.19731C152.857 5.14969 152.954 5.08578 153.036 5.00519C153.119 4.92501 153.184 4.82977 153.231 4.72028C153.279 4.6112 153.303 4.49438 153.303 4.37065C153.303 4.24691 153.279 4.1301 153.231 4.02061C153.184 3.91112 153.119 3.81628 153.036 3.73569C152.954 3.6551 152.857 3.5912 152.747 3.54358C152.636 3.49596 152.518 3.47235 152.392 3.47235C152.266 3.47235 152.148 3.49596 152.037 3.54358C151.927 3.5912 151.831 3.6551 151.748 3.73569C151.666 3.81628 151.601 3.91112 151.553 4.02061C151.506 4.1301 151.482 4.24691 151.482 4.37065ZM151.29 4.37065C151.29 4.22168 151.319 4.08166 151.377 3.951C151.434 3.81994 151.513 3.70598 151.612 3.6087C151.711 3.51183 151.827 3.43449 151.962 3.37791C152.096 3.32093 152.239 3.29285 152.392 3.29285C152.545 3.29285 152.688 3.32093 152.822 3.37791C152.957 3.43449 153.074 3.51183 153.173 3.6087C153.271 3.70598 153.35 3.81994 153.408 3.951C153.466 4.08166 153.494 4.22168 153.494 4.37065C153.494 4.51921 153.466 4.65882 153.408 4.78988C153.35 4.92135 153.271 5.03532 153.173 5.13219C153.074 5.22906 152.957 5.30598 152.822 5.36296C152.688 5.41954 152.545 5.44763 152.392 5.44763C152.239 5.44763 152.096 5.41954 151.962 5.36296C151.827 5.30598 151.711 5.22906 151.612 5.13219C151.513 5.03532 151.434 4.92135 151.377 4.78988C151.319 4.65882 151.29 4.51921 151.29 4.37065Z" fill="#1D1D1B"/>
<path fill-rule="evenodd" clip-rule="evenodd" d="M143.95 3.65878C144.003 3.65878 144.081 3.71129 144.118 3.77153C144.184 3.88997 148.21 11.9908 148.606 12.7597V4.76384C148.581 4.26483 148.368 3.92904 147.975 3.86433H147.908V3.65878H150.568V3.86433H150.514C150.112 3.92904 149.936 4.28722 149.936 4.79884V18.4436H148.779C148.779 18.4436 143.793 8.32522 143.322 7.36019L143.303 7.31949V17.2967C143.303 17.8172 143.539 18.1726 143.926 18.2222L143.98 18.2316V18.4436H141.28V18.2316L141.328 18.2222C141.727 18.1705 141.907 17.8172 141.907 17.2857V4.79884C141.907 4.28722 141.68 3.92904 141.281 3.86433H141.229V3.65878H143.95" fill="#1D1D1B"/>
<path d="M17.8383 0C17.739 0.00366314 17.3543 0.421667 17.3543 0.421667C17.1793 0.557203 16.246 1.71394 16.246 1.71394C15.7975 2.16655 15.0026 3.22601 14.9961 3.23903C14.9977 3.23089 14.4401 3.73884 14.4401 3.73884L13.6399 4.5716C13.4022 4.77755 13.237 5.15241 13.0868 5.65426C12.5959 5.92615 12.195 6.42027 11.9646 7.04789C11.7685 7.29536 11.4546 7.4895 11.1547 7.67592C10.6382 8.00601 10.1147 8.34423 10.057 9.05081C9.88478 9.11756 9.74518 9.23315 9.6068 9.34467L9.37601 9.5201C9.25757 9.60109 9.23519 9.52417 9.1782 9.48062C9.35241 9.24211 9.37602 9.20344 9.40817 9.15053C9.43463 9.09843 9.44846 9.04837 9.44846 8.99994C9.44643 8.85097 9.33206 8.7134 9.18594 8.632L9.17901 8.54651C9.17616 8.4875 9.15704 8.42116 9.07767 8.354L9.09192 8.32592L9.09029 8.31452C9.09029 8.21521 9.04185 8.19079 8.99912 8.17207L8.96411 8.15049V8.14724C8.96411 8.12811 8.98365 8.0984 9.03128 8.04223C9.06791 7.98647 9.11349 7.92989 9.11349 7.86477C9.11349 7.85337 9.11349 7.84767 9.10698 7.83668L9.00359 7.74063C10.197 5.79225 13.0697 1.07778 13.0697 1.07778C13.0945 0.955671 13.1263 0.904794 13.2203 0.818913C13.4099 0.627616 13.4148 0.328459 13.4209 0.294269C13.4283 0.256824 13.4177 0.197403 13.4177 0.197403C13.4177 0.197403 13.3562 0.210835 13.3139 0.219382C13.2679 0.226708 12.9956 0.312587 12.8751 0.61907C12.8487 0.729371 12.8125 0.787978 12.7103 0.87915C12.7103 0.87915 8.66536 7.42071 8.62019 7.50334C8.50948 7.47932 8.51599 7.44269 8.49605 7.34297C8.47203 7.25831 8.38819 7.15045 8.273 7.10161C8.15578 7.05277 7.82202 7.01166 7.62503 6.87369L7.59694 6.85456L7.57334 6.86839C7.48258 6.88671 7.50782 6.90868 7.44554 6.81507C7.39141 6.73122 7.32832 6.63313 7.20174 6.62011L7.02754 6.64494C6.94247 6.6889 6.83745 6.68849 6.73651 6.68849H6.6832C6.5037 6.68564 6.31811 6.70559 6.19682 6.92456C6.1671 6.92293 6.14187 6.92293 6.11907 6.92456C5.82806 6.93718 5.70921 7.18261 5.60094 7.40687C5.5289 7.55625 5.4589 7.70888 5.33272 7.78988C5.18294 7.92664 5.10479 8.10654 5.11049 8.31452C5.1113 8.41424 5.09176 8.62344 5.10397 8.65356L5.08363 8.83428C5.06857 8.88312 5.10235 9.01255 5.10235 9.07523C5.10479 9.14809 5.1341 9.21403 5.17765 9.26898C5.18579 9.68373 5.4996 9.93688 5.79997 10.1396C5.96115 10.5047 6.27618 10.573 6.58633 10.641C6.58633 10.641 6.59569 10.6711 6.66163 10.6846L2.24429 17.8391C2.23818 17.8354 2.23493 17.833 2.23289 17.8322C2.23574 17.8289 2.24225 17.8163 2.19137 17.811C2.1348 17.8029 2.06723 17.846 2.06723 17.846L1.88001 17.9384C1.69604 17.9848 1.66673 18.0483 1.65492 18.1997L1.45915 18.2543C1.31792 18.3104 1.29065 18.4916 1.29065 18.4916C1.22105 18.4916 1.12458 18.6031 1.07371 18.7549L1.00737 19.0821C1.00737 19.1611 1.02364 19.2368 1.07371 19.3084C1.05539 19.3512 1.04277 19.4143 1.04277 19.4143C1.05539 19.5099 1.14412 19.5315 1.16488 19.5449L0.446906 20.7456L0 21.4831V21.4843C0 21.4982 0.00610325 21.6036 0.150594 21.6927C0.309737 21.7839 0.409456 21.7285 0.409456 21.7285L0.859213 20.9756C0.859213 20.9756 1.53445 19.9088 1.57719 19.8282L1.75953 19.9641C1.9032 20.0138 2.0599 20.0805 2.29801 19.8937C2.3843 19.8249 2.60856 19.6446 2.83771 19.5176C3.0575 19.3052 3.20891 19.2425 3.35951 19.1859C3.48202 19.1391 3.60128 19.0846 3.74048 18.9653C4.10638 18.5428 4.66318 18.2416 5.24969 17.9417C5.24969 17.9417 5.78206 17.7553 6.01488 17.533C6.24891 17.3206 6.47114 16.9864 6.47114 16.9864C6.92374 16.5155 7.34705 16.0637 7.88756 15.7259L7.89854 15.7202C8.1106 15.5761 8.27381 15.3742 8.42522 15.1772C8.53105 15.0531 8.6324 14.9269 8.7541 14.8137C8.82655 14.7592 8.89858 14.6998 8.95638 14.6469C8.99545 14.6119 9.03494 14.5883 9.08012 14.5663C9.21565 14.4922 9.39555 14.4495 9.50381 14.4548C9.86158 14.4458 10.1961 14.5048 10.5421 14.5691C10.9898 14.6505 11.4493 14.7356 11.9724 14.6684C12.2174 14.7104 12.3843 14.8931 12.5776 15.108L12.6553 15.1947C12.6553 15.2082 12.5959 15.3514 12.5808 15.3999C12.5638 15.4434 12.5776 15.5513 12.5218 15.6091C12.4693 15.6579 12.4111 15.7271 12.3806 15.848C12.2626 16.5476 11.9618 16.9893 11.5141 17.4724C10.7827 18.3003 9.78629 18.5774 8.82207 18.8436C8.041 19.0597 7.23104 19.286 6.56028 19.8038L6.28229 20.0268C6.03726 20.2425 5.84923 20.4029 5.49431 20.481C5.30016 20.5116 5.11782 20.4424 4.92733 20.3703C4.74865 20.3015 4.56631 20.2279 4.35792 20.2311L4.14953 20.2258C3.84101 20.2311 3.25084 20.3016 2.7441 20.711C2.07008 21.2564 1.5723 22.3863 1.63417 23.1039L1.65696 23.3179L1.67446 23.5304C1.72615 23.8247 1.81082 24.086 1.89344 24.3363C1.99723 24.642 2.13846 25.1841 2.14497 25.2175C2.16166 25.316 2.1116 25.3648 2.1116 25.3648C2.1466 25.4165 2.2276 25.4002 2.26748 25.4059H2.29475C2.31795 25.4035 2.34523 25.3945 2.3729 25.3921L2.42378 25.384L2.6916 25.9705C2.87842 26.3921 3.06442 26.8232 3.38678 27.1899C3.42341 27.2489 3.4637 27.2733 3.50522 27.2758H3.53412C3.57075 27.2684 3.61023 27.2489 3.63587 27.2355C3.63587 27.2355 3.67983 27.2245 3.69693 27.2106L4.16255 27.9083C4.55939 28.4512 4.96926 29.0235 4.98106 29.7179C4.98106 29.7993 4.97658 29.8831 4.96925 29.9682C4.89965 30.3129 4.50241 30.7741 4.16947 30.8913C4.16947 30.8913 4.16947 30.9829 4.18941 31.0272C4.22401 31.1001 4.34042 31.1982 4.41938 31.2165C4.49386 31.2381 4.57201 31.2486 4.64812 31.2511H4.76534C5.07752 31.232 5.39133 31.0964 5.64694 30.8644C5.87405 30.842 6.62581 30.444 6.79472 29.8188C6.79472 29.8188 6.85374 29.5575 6.87449 29.4855C6.88345 29.4789 6.89647 29.4773 6.92008 29.4789C7.01939 29.4842 7.22045 29.5404 7.35477 29.5762L7.83302 29.6983C8.12322 29.6934 8.32591 29.8961 8.54448 30.1106C8.81433 30.378 9.09192 30.6471 9.51562 30.5042C9.60028 30.5339 9.63366 30.5807 9.63488 30.6528C9.63488 30.698 9.62714 30.7545 9.61452 30.8245L9.59051 31.0525V31.0716C9.59336 31.1599 9.66662 31.2071 9.71587 31.2381C9.76186 31.2613 9.78099 31.28 9.78099 31.2991L9.77693 31.3101C9.71465 31.3675 9.68697 31.4273 9.68697 31.4802C9.68697 31.5653 9.74843 31.6451 9.7932 31.7114L9.88478 31.8722L9.91165 31.8974C10.1156 31.9609 10.3089 31.9939 10.5002 32H10.6325C10.9919 31.9858 11.302 31.8567 11.5267 31.6239L11.556 31.5946L11.5466 31.5653C11.4888 31.361 11.4188 31.1742 11.324 31.0187L11.3089 31.0053L11.2922 30.9947C11.2178 30.967 11.2003 30.9047 11.1734 30.8083C11.1457 30.7252 11.1193 30.6328 11.0391 30.5653C10.6325 30.3862 10.3769 30.0134 10.1416 29.6523L10.0761 29.5599C10.3769 29.5831 10.6683 29.7464 10.8592 29.9039C10.9162 29.9389 10.9654 29.9572 11.0171 29.9629H11.0655C11.162 29.9523 11.2487 29.9039 11.3309 29.8583C11.4229 29.8054 11.5043 29.7598 11.5955 29.7598C11.6525 29.7724 11.6915 29.7993 11.7066 29.8241L11.6915 29.9889C11.6728 30.0414 11.6581 30.107 11.6581 30.1623C11.661 30.2266 11.6818 30.2771 11.7375 30.328C11.7473 30.4525 11.7847 30.5547 11.871 30.6353C12.0664 30.8294 12.4364 30.8363 12.6334 30.8335H12.6822C12.9394 30.8254 13.2923 30.7704 13.4099 30.4525L13.4148 30.4297L13.4099 30.4077C13.2634 30.109 13.1389 29.8876 13.0025 29.6983L12.9923 29.6849L12.9728 29.68C12.8124 29.6234 12.7034 29.4264 12.6228 29.218L12.6028 29.1834H12.5638C12.3517 29.1716 12.2076 29.0304 12.0574 28.8733C11.904 28.7101 11.7453 28.5518 11.508 28.5208L10.9052 28.4211C10.2971 28.3381 9.71587 28.2518 9.39555 27.7052C9.35607 27.6067 9.34182 27.5074 9.33572 27.4093C9.33287 27.2513 9.37601 27.0967 9.46759 26.9497L9.54534 26.8594C10.2096 26.0795 10.7794 25.4059 10.8576 24.4258L10.812 24.0306C10.7985 23.9126 10.7843 23.8186 10.7827 23.7372C10.7794 23.5927 10.8238 23.497 10.9589 23.462L11.2336 23.4514C12.3623 23.4201 13.7128 23.2475 14.7621 22.6565C15.8223 22.0985 16.6148 21.4636 17.5774 19.8693L17.8655 19.9723C18.0886 20.0374 18.424 20.1249 18.6136 19.8534C18.7207 19.4952 18.9352 19.1831 19.1236 18.8864L19.236 18.7288C19.5197 18.251 19.6141 17.6881 19.7215 17.15C19.9649 16.8159 20.0915 16.4113 20.2132 16.0189C20.2991 15.7336 20.2132 15.3286 20.3479 15.069C20.5535 14.7458 20.9129 14.471 21.0985 14.3485C21.1717 14.4409 21.4436 14.5964 21.5299 14.6229C21.6166 14.6505 21.6874 14.6746 21.7338 14.7527C21.7501 14.7787 21.757 14.7979 21.757 14.819C21.7591 14.8931 21.6952 14.9497 21.5963 15.0315C21.501 15.1056 21.3854 15.1947 21.387 15.3376V15.3742L21.4135 15.3881C21.4558 15.4267 21.479 15.469 21.479 15.5106C21.4819 15.5578 21.4554 15.6099 21.4159 15.6848C21.372 15.756 21.3337 15.8443 21.3345 15.9432C21.3345 15.9465 21.3345 15.9599 21.3406 15.968V15.9786L21.3512 15.9925C21.7937 16.6824 22.2658 17.1065 22.7538 17.2607L22.8124 17.286L22.9219 16.9534C22.9659 16.8171 22.9707 16.6681 22.9764 16.5208C22.9793 16.3165 22.9805 16.1195 23.1205 15.9786L23.1437 15.9493L23.0131 15.3229C22.9296 14.9851 22.8499 14.6371 22.8417 14.2663L22.8478 14.0954C22.7676 13.7193 22.6333 13.563 22.3741 13.4254C22.7892 13.0957 23.2569 12.7477 23.7868 12.6236C24.0782 12.565 24.1006 12.3843 24.0982 12.2219L24.0945 12.1104C24.0921 12.0021 24.1063 11.9117 24.1828 11.8425C24.2016 11.825 24.2211 11.8189 24.2447 11.8206C24.2789 11.8206 24.3212 11.8389 24.3815 11.8714C24.5842 11.9858 24.6904 11.8621 24.7868 11.7644L24.843 11.7017C25.5301 11.7672 25.71 11.3126 25.876 10.8751L25.9595 10.6545C26.0144 10.5242 26.1206 10.2014 26.0177 10.0333L25.9985 9.99794L25.9595 10.0036C25.6424 10.0203 24.9842 10.341 24.9842 10.341L24.9362 10.3679L24.7921 10.3472C24.5715 10.3472 24.3526 10.4892 24.1556 10.6247L23.9252 10.7737C23.3033 10.9487 22.801 11.4062 22.3081 11.8551C21.9337 12.1844 21.558 12.5218 21.1266 12.742C21.4693 12.8658 21.8344 12.8979 22.0375 13.121C22.0741 13.1702 22.1294 13.3558 22.1636 13.399C21.8991 13.1214 20.8762 12.9346 20.7391 12.902L20.3239 12.81C19.7915 13.1104 19.133 13.5756 18.8827 14.1503C18.809 14.4592 18.6865 15.0934 18.647 15.2863C18.59 15.5578 18.4862 16.2131 18.3686 16.4308C18.2408 15.9786 17.7186 15.0343 17.7186 15.0343C17.7186 15.0343 17.0938 14.2916 17.0137 13.9863C16.9363 13.7002 16.6408 13.2349 16.3799 13.0229C16.0674 12.8515 15.9355 12.5707 15.7951 12.2768C15.6567 11.9589 15.5044 11.6321 15.1304 11.4363L15.0486 11.2402C14.8296 10.7236 13.8267 10.0663 13.8267 10.0663L13.806 10.0606C13.434 9.9788 13.3167 9.73378 13.2072 9.47329L13.1389 9.33979C13.1226 9.25228 13.1071 9.16519 13.1071 9.08297C13.0974 8.55914 13.4275 8.12811 13.7665 7.67063C13.7665 7.67063 14.633 6.79635 14.8715 6.06983C14.874 6.06494 15.2053 5.60298 15.2053 5.59566C15.7299 5.11741 15.7686 4.62207 15.988 3.99689C16.0893 3.67413 16.0763 3.77833 16.2591 3.49341C16.6917 2.78032 16.8419 2.56949 17.0092 2.52512L17.0804 2.4946C17.1915 2.4307 17.3189 2.36639 17.4003 2.05787C17.4068 2.05177 17.4752 1.78843 17.4752 1.78843L17.5416 1.57719C17.6999 1.3692 17.8134 1.15511 17.8444 0.995561L17.846 0.963402C17.8444 0.904792 17.8224 0.851476 17.7837 0.811181C17.7646 0.799785 17.7508 0.799785 17.7276 0.792866L17.8346 0.652035C17.9164 0.546618 18.0768 0.36794 18.0739 0.23566C18.0634 0.0402924 17.9376 0.00773151 17.8721 0.00325434L17.8383 0V0ZM17.093 1.75057C17.3417 1.34763 17.3808 1.42903 17.2725 1.58858L17.0833 2.01269C17.0308 2.20521 16.6408 2.28255 16.4227 2.32732C16.3767 2.32732 16.3075 2.34319 16.2228 2.38104C16.1679 2.39528 16.1048 2.34156 16.1939 2.19911C16.2908 2.06357 16.3616 2.03548 16.594 2.10753C16.6062 2.11038 16.6193 2.11241 16.6327 2.11241C16.7825 2.11241 16.9787 1.93292 17.093 1.75057ZM15.5631 3.20809C15.8134 3.07866 16.0071 2.91138 16.1349 2.83893C16.2009 2.80474 16.3449 2.71886 16.4337 2.6399C16.671 2.61304 16.2949 2.93703 16.1085 3.24188C15.9229 3.52883 15.8223 4.03271 15.6742 4.34123C15.4906 4.75517 15.2908 5.2505 14.7254 5.53134C14.3624 5.97784 14.4698 6.27862 13.2113 7.78661C12.9765 8.0528 12.7534 8.42116 12.6582 8.94173C11.8836 9.19001 11.8022 7.78418 11.8608 7.67063C11.9329 7.50049 12.1588 7.35803 12.5381 6.99212C12.9341 6.62011 13.9273 6.28514 13.7811 6.12885C13.7608 5.92045 13.6887 5.64734 13.8129 5.31522C14.2419 4.5602 15.314 4.25779 15.6131 3.73274C15.6905 3.5915 16.1146 3.21583 15.5549 3.45312C15.5162 3.47062 15.4723 3.48039 15.4365 3.48039C15.3416 3.48039 15.3034 3.40835 15.5631 3.20809V3.20809ZM7.17161 8.28929C7.26971 8.28399 7.27255 8.10369 7.26197 7.9596C7.25261 7.8204 7.32018 7.66085 7.39222 7.57619C7.4899 7.46304 7.60305 7.35315 7.87982 7.35803C8.03775 7.40159 8.10368 7.41786 8.18875 7.51921C8.17573 7.56805 8.11956 7.56276 8.06949 7.55706C8.02961 7.55258 7.99379 7.5481 7.98646 7.5709C7.97059 7.63276 8.12322 7.77482 7.98483 7.8721C7.86069 7.95635 7.69829 7.85867 7.69829 7.7618C7.59694 7.82611 7.58108 8.02879 7.55788 8.19892C7.55788 8.19892 7.50171 8.7134 7.9596 8.5392C8.006 8.48303 7.36006 9.53028 7.04625 10.0525C6.7532 9.98776 6.30753 10.1261 6.1671 9.79727L6.14716 9.77775C5.41941 9.64547 5.51669 9.20344 5.51669 9.20344L5.51262 9.16274C5.4414 9.10413 5.41941 9.03697 5.46459 8.95516L5.30545 8.85097C5.28225 8.80579 5.29772 8.66129 5.30016 8.65356C5.2505 8.49564 5.25864 8.5225 5.30341 8.54855C5.33801 8.5685 5.39377 8.58804 5.46175 8.52862C5.45686 8.54937 5.45441 8.55996 5.45401 8.56199C5.45645 8.55263 5.49756 8.39755 5.54884 8.37842C5.6856 8.33935 5.68804 8.43825 5.74625 8.56239C5.79712 8.68368 5.6856 8.28644 5.90702 8.24777C6.12803 8.21236 6.22409 8.24533 6.22042 8.0699C6.21839 7.98972 6.17809 7.99786 6.13373 8.00641C6.08041 8.01577 6.0218 8.02594 6.01691 7.88308C6.00755 7.68242 6.10239 7.74063 6.15367 7.74063C6.34497 7.74348 6.23996 7.96245 6.42433 7.90506C6.8574 7.75854 6.65756 8.0528 6.8517 8.0817C7.1415 8.11589 7.07434 8.2897 7.16388 8.2897C7.16673 8.2897 7.16877 8.28929 7.17161 8.28929V8.28929ZM8.03449 10.9162C7.94047 10.6903 7.79354 10.4619 7.6348 10.3056C7.57416 10.254 7.59939 10.2894 7.47565 10.2275L8.55955 8.4875C8.60717 8.47651 8.72478 8.49035 8.81595 8.50134C8.85137 8.50582 8.85911 8.56809 8.76956 8.75939C8.737 8.83102 8.86073 8.82085 8.99545 8.81108C9.06383 8.80579 9.13465 8.80091 9.1896 8.80579C9.25065 8.90633 9.21199 9.0911 9.14646 9.21687L9.03778 9.35363C8.97348 9.41468 8.83021 9.5897 8.78422 9.77285C8.73741 10.0724 8.77933 10.6247 8.8302 10.9101C8.88434 11.1986 9.28687 10.7318 9.54614 10.676C10.2413 10.5429 9.76186 10.8909 9.5201 10.9931C9.26693 11.1001 9.14279 11.4062 8.9055 11.4705C8.72071 11.5186 8.32999 11.683 8.16637 11.8022C8.19079 11.6586 8.13136 11.1392 8.03449 10.9162ZM14.1234 11.8877C14.0123 11.751 13.8084 11.7538 13.4983 11.6915C13.215 11.6297 13.1254 11.6232 12.8295 11.3757C12.4111 11.0151 12.2732 11.009 11.9557 10.9455C11.6415 10.8942 11.1946 10.5999 11.16 10.5669C11.0061 10.4033 11.0993 10.3008 11.3374 10.4009C11.5727 10.501 11.4746 10.455 11.7522 10.4261C12.3875 10.3472 12.5959 10.5731 12.6305 10.8226C12.6814 11.1445 12.8125 11.0847 12.9805 11.0484C13.1889 11.0045 13.392 11.0871 13.5003 11.2039C13.7734 11.4823 13.8251 11.4083 14.1438 11.6232C14.2635 11.7074 14.3624 11.7644 14.3827 11.8621C14.4075 11.9834 14.399 12.0603 14.3465 12.0603C14.3033 12.0603 14.2305 12.0086 14.1234 11.8877V11.8877ZM7.16429 10.7318C7.39792 10.8022 7.76993 10.8909 7.85133 11.1445C7.93273 11.3973 7.86721 11.6561 7.80615 11.8849C7.58107 12.1572 7.27337 12.3566 6.94979 12.9057C6.78617 13.0799 6.89607 13.7091 6.43329 14.1271C5.69496 14.7922 5.80893 15.9062 4.84389 16.1882C4.31355 16.3763 3.32613 17.8139 3.28217 17.8301L2.79457 17.8407C4.05754 15.78 6.92252 11.1628 7.16429 10.7318V10.7318ZM3.62691 18.472C3.65948 18.435 3.87235 18.0723 3.98916 17.9637C4.36524 17.6104 5.56879 17.1765 5.93469 16.3547C5.94935 16.3136 6.33642 16.338 6.56231 16.1361C6.88874 15.8541 6.88427 15.9355 7.18017 15.5435C7.69056 14.8658 7.61282 14.8353 7.96204 14.6066C8.16636 14.2106 8.10368 13.6961 7.89854 13.4185C7.70399 13.1629 7.78336 13.0445 8.31981 12.7998C8.96411 12.5019 9.92589 12.7477 10.6178 12.3566C10.6561 12.335 10.6683 12.3122 10.6683 12.2829C10.6683 12.228 10.641 12.162 10.7228 12.0798C10.8246 11.961 10.9585 12.0684 11.0851 11.9589C11.4188 11.6695 11.8877 11.392 11.4188 12.2679C11.3252 12.4677 11.7798 12.3379 12.3228 12.486C12.7017 12.5967 12.3582 13.0351 13.2634 13.1499C13.3977 13.167 13.4006 13.4287 13.5418 13.4612C13.6949 13.4909 13.9924 13.504 14.4698 13.3359C14.9061 13.1922 14.7881 13.4637 14.6167 13.5715C14.4894 13.6538 14.1821 13.7771 13.8853 13.9843C13.6236 14.1739 13.6688 14.1768 13.9842 14.1055C14.3033 14.04 14.3143 14.204 14.1035 14.3567C13.9256 14.4759 13.9138 14.4776 13.727 14.6485C13.5837 14.7726 13.6261 14.819 13.8353 14.8125C14.1161 14.795 14.6538 14.5109 14.8984 14.4189C15.145 14.3302 15.4312 14.4189 15.0303 14.6013C14.5679 14.8097 14.3213 15.0217 14.108 15.2081C13.8483 15.3775 13.83 15.6526 13.3839 16.13C13.2073 16.3116 12.917 16.5261 12.764 16.5261C12.4327 16.5342 12.9036 15.4487 12.8979 15.3152C12.8922 15.1809 12.8422 15.0201 12.8422 15.0201C13.0941 14.4328 12.3696 14.2663 12.0412 14.2012C11.5308 14.2557 10.6382 14.0787 10.2018 13.9944C8.9112 13.7364 8.08659 15.2305 7.30634 15.9196C7.30634 15.9196 6.58999 16.496 6.13047 16.9775L5.0588 17.7019C4.84674 17.8167 3.80397 18.6031 3.65174 18.7822C3.53575 18.8835 3.43317 18.9242 3.31188 18.9678C3.15518 19.03 2.98343 19.1021 2.75916 19.3215C2.21865 19.6129 1.89995 19.5502 1.76278 19.4953C1.76278 19.4953 1.52997 19.3601 1.45264 19.2722C1.37327 19.1831 1.49822 19.0272 1.50758 18.9299C1.51369 18.8526 1.51369 18.8184 1.5723 18.75C1.5723 18.75 1.61952 18.6336 1.68952 18.5689C1.75953 18.505 1.83768 18.3996 1.89222 18.3304C1.93902 18.2754 1.91012 18.2278 2.00496 18.1948C1.98583 18.2876 2.03915 18.3369 2.16166 18.4508C2.40994 18.7008 2.51821 18.7288 2.67491 18.6173C2.73515 18.5746 2.86783 18.5791 3.03471 18.5839L3.36521 18.5864C3.469 18.5864 3.53452 18.5754 3.62691 18.472V18.472ZM15.279 12.7937C15.1438 12.6928 15.0262 12.451 14.7971 12.3883C14.5618 12.3301 14.6123 12.2406 14.769 12.228C15.0099 12.2088 15.259 12.3269 15.3514 12.3883L15.3832 12.4132C15.4312 12.5027 15.4715 12.5906 15.5232 12.6716L15.524 12.7209C15.5163 12.7811 15.4723 12.8352 15.4002 12.8352C15.3661 12.8352 15.3254 12.8234 15.279 12.7937V12.7937ZM17.6222 18.9816C17.5351 18.9079 17.415 18.5978 15.0881 18.5664C13.911 18.5298 13.6542 17.9746 13.6126 17.8301C13.4331 17.4081 13.4506 17.4406 13.2272 17.2151C13.1014 17.0841 13.0925 16.966 13.4604 17.1008C14.1605 17.356 14.6167 18.0666 15.2427 18.181C15.524 18.2298 15.688 18.3076 15.3901 18.0528C15.1044 17.8078 14.9704 17.6751 14.723 17.4646C14.5679 17.3621 14.5105 17.2701 14.8439 17.358C15.1764 17.4406 16.1805 17.6112 16.8903 18.0231C17.5802 18.5078 17.2937 18.2718 17.6616 18.6108C18.0283 18.949 18.273 18.7419 18.5668 18.2054C18.7573 17.8713 19.2551 17.2229 19.3129 17.1687C19.3398 17.1525 19.3341 17.1167 19.3341 17.1793C19.3235 17.4024 18.8839 18.2465 18.8041 18.3605C18.6014 18.6706 18.5558 18.6519 18.3808 18.9844C18.2689 19.1949 18.1517 19.2681 18.0414 19.2681H18.041C17.8712 19.2681 17.7174 19.0956 17.6222 18.9816V18.9816ZM17.1398 19.6739C16.4894 20.906 14.843 23.0623 10.6581 22.9423C10.0663 22.5206 9.46637 22.3733 9.16355 22.2125C8.97266 22.1144 8.90021 22.368 8.92057 22.7738C8.92993 23.0074 8.78137 23.2642 8.61042 23.2968C8.51599 23.2496 8.49605 23.3236 8.41546 23.0351C8.30597 22.6276 8.3715 22.5389 7.85825 22.3501C7.5017 22.2259 7.46182 21.8108 7.63195 21.5539C7.88186 21.954 8.02513 22.0615 8.32672 22.2048C8.36417 22.0676 8.27382 21.9809 8.13258 21.7811C8.07682 21.7037 8.006 21.431 8.36417 21.4265C8.69101 21.4265 9.12285 21.3854 9.7521 21.7253C10.0244 21.8645 10.4619 22.1803 11.5841 22.3468L11.8584 22.3513C12.692 22.3513 15.1495 22.1799 17.1398 19.6739V19.6739ZM3.81373 21.1974C3.841 21.1241 4.30541 20.7733 5.16381 20.7892L5.24847 20.7949C5.69008 20.8486 5.96522 21.3162 5.70188 21.9109C5.13369 23.0595 6.07553 23.7396 6.7178 23.7917C7.61649 23.865 7.35396 24.2488 8.10775 24.5699C8.45941 24.7095 8.92993 24.7787 9.3227 24.7852C9.18961 24.8479 9.0329 24.9094 8.78665 24.9171H8.69956C8.46227 24.913 8.14723 24.8719 7.70765 24.7531C7.68568 24.7429 7.65881 24.7372 7.63195 24.7372C7.4264 24.7295 7.21109 24.9118 7.46019 25.1943C7.71864 25.4926 8.25509 25.7678 8.53552 25.7926C8.37882 26.1304 8.07397 26.4674 8.006 26.5602C7.64131 27.036 6.40561 27.8436 6.33479 27.9022C5.85695 28.2709 6.17402 28.4655 6.47481 28.5074C6.95916 28.5794 7.17161 28.5908 7.52816 28.6971C8.42278 29.1716 8.16311 29.2689 8.50663 29.5437C9.05244 29.9991 9.83553 29.829 10.0024 30.3129C10.1758 30.8026 9.92589 30.547 9.81599 30.7635C9.7932 30.8083 9.77692 30.8551 9.75861 30.9015C9.76186 30.8477 9.78018 30.702 9.78018 30.702C9.78629 30.6471 9.80094 30.5836 9.80094 30.5181C9.79809 30.4037 9.74396 30.2742 9.57871 30.2099C9.57871 30.2099 9.36869 30.2445 9.29095 30.249H9.23234C9.07767 30.2372 8.95638 30.153 8.76427 30.0235C8.51518 29.8485 8.2958 29.5103 7.97711 29.5025H7.99826L7.61933 29.424C7.33564 29.3381 6.76867 28.9413 6.59569 28.9413C6.57412 28.938 6.55743 28.9449 6.55051 28.9543L6.59203 29.3906C6.59203 29.3906 6.60953 29.5302 6.56435 29.7964C6.51999 30.0667 6.12803 30.6715 5.50123 30.6845C5.77922 30.4769 6.0857 30.1412 6.07959 29.7407C6.0682 29.0654 5.89928 28.9523 5.81747 28.9571C5.80079 28.9571 5.78858 28.962 5.7837 28.9685C5.7837 28.544 5.71247 27.3075 5.52646 26.8325C5.46744 26.6791 5.33109 26.349 5.0824 26.0156L5.19352 26.1141C6.03685 26.9172 5.81422 27.9551 5.96522 27.7711L6.5554 27.2355C6.79106 26.8622 7.11708 26.349 6.98276 25.7433C6.82159 25.178 6.43818 24.9651 6.06087 24.5089L5.35389 23.8023C5.00426 23.285 4.98798 22.5682 5.24766 21.8946C5.27737 21.8087 5.32702 21.6333 5.32702 21.5059C5.4011 21.1567 5.21306 21.0553 4.94198 21.0553C4.56631 21.0553 4.04411 21.2532 3.86869 21.2532C3.81944 21.2532 3.79705 21.2377 3.81373 21.1974V21.1974ZM4.62003 25.1231C4.53375 25.0441 4.51543 24.9432 4.49671 24.8178L4.4499 24.6245C4.4499 24.6135 4.26837 24.3473 4.26837 24.3473C4.14586 24.1906 4.04126 24.0371 4.01358 23.8491L4.07789 23.8104L4.22564 23.681C4.23459 23.6346 4.23459 23.5764 4.23459 23.5385C4.23174 23.3399 4.16255 23.171 4.0901 23.0045L3.95578 22.6142C3.94805 22.5499 3.94357 22.4958 3.94357 22.4351C3.93787 22.0985 4.04573 21.8722 4.26471 21.7387C4.40106 21.6549 4.52968 21.6243 4.6412 21.6243C4.72993 21.6243 4.80726 21.6406 4.86994 21.6655C4.95094 21.7037 4.96925 21.7676 4.96925 21.8169C4.96925 21.8368 4.96681 21.8531 4.96396 21.8616C4.84674 22.1693 4.79302 22.4844 4.79749 22.7839C4.80441 23.1824 4.91471 23.565 5.12351 23.8764L5.67299 24.5923C6.04703 25.0372 6.42881 25.4955 6.58511 26.0319C6.60179 26.117 6.6136 26.1984 6.6136 26.2794C6.62093 26.6327 6.46463 26.9538 6.26316 27.2839C6.00674 26.5285 5.47314 25.8215 4.62003 25.1231V25.1231ZM7.30634 27.6905C7.44961 27.5025 8.20381 27.1138 8.41709 26.9709C8.95638 26.5932 9.82332 26.0738 10.186 25.3624C10.0724 25.7039 9.82332 26.1894 9.32351 26.7747L9.24088 26.8753C9.13669 27.0543 8.50133 27.4186 8.57053 27.8916C8.92748 28.4997 10.0297 28.6323 10.6382 28.7239C10.6382 28.7239 11.4628 28.8306 11.6325 29.1244C11.7453 29.3178 11.9463 29.2766 12.1836 29.3023C12.2732 29.5115 12.3875 29.7048 12.5707 29.785C12.6948 29.9629 12.7758 30.0712 12.9004 30.3459C12.963 30.6385 12.2581 30.6402 12.0855 30.4664C12.0184 30.4008 11.9943 30.2405 12.0269 30.1139C12.053 30.0337 12.0806 29.9389 12.0334 29.8501C12.0013 29.7944 11.7135 29.4997 11.6089 29.4773C11.4677 29.4745 11.3578 29.5347 11.2629 29.5925C11.1242 29.6678 11.0403 29.7166 10.9312 29.6446C10.5853 29.3747 10.2552 29.4041 9.94746 29.4264L9.66663 29.4582C9.06587 28.9413 7.94414 28.5794 7.73127 28.3051C7.62219 28.1696 7.58026 28.0878 7.76382 27.9254C7.8033 27.8936 7.69829 27.8126 7.59654 27.8631C7.51757 27.905 7.4488 27.9323 7.30634 27.9551C7.27907 27.96 7.25668 27.9616 7.23796 27.9616C7.06579 27.9616 7.25302 27.7691 7.30634 27.6905V27.6905ZM5.45401 8.56199C5.4536 8.5624 5.4536 8.5624 5.45401 8.56199V8.56199Z" fill="url(#paint0_linear)"/>
<path d="M34.7328 26.046H30.9166V26.8515H32.3884V31.9416L33.261 31.8728V26.8515H34.7328V26.046ZM40.0631 26.8515V26.046H36.5212V31.8728H40.0631L40.2002 31.0678H37.3939V29.3278H39.661V28.5227H37.3939V26.8515H40.0631ZM44.5553 26.046H43.9818L41.3891 31.8045L42.2622 31.9416L42.8699 30.5704H45.6502L46.2579 31.9416L47.148 31.8045L44.5553 26.046ZM43.2293 29.7649L44.2472 27.4857L45.2822 29.7649H43.2293ZM53.7274 25.9773H52.9919L51.4599 30.6046L49.8001 25.9773H49.0642L48.2514 31.8045L49.1241 31.9416L49.595 27.8882L51.0578 31.9416H51.7343L53.1287 27.8882L53.6676 31.9416L54.5406 31.8045L53.7274 25.9773V25.9773ZM63.2337 26.046H62.4294V29.3966C62.4294 29.631 62.4168 29.8537 62.3908 30.0649C62.3651 30.2765 62.3065 30.4605 62.2153 30.6176C62.1242 30.7747 61.9902 30.9005 61.8132 30.9945C61.6366 31.0889 61.3968 31.1362 61.0944 31.1362C60.7749 31.1362 60.5258 31.0865 60.3459 30.9864C60.166 30.8866 60.0337 30.7544 59.9483 30.592C59.8624 30.4292 59.8095 30.2436 59.7899 30.0348C59.7696 29.8264 59.7598 29.6139 59.7598 29.3966V25.9773L58.8872 26.046V29.465C58.8872 29.8195 58.9266 30.1463 59.0068 30.4467C59.0866 30.7466 59.2132 31.0075 59.3878 31.2302C59.5612 31.4532 59.7883 31.6278 60.0679 31.7528C60.3471 31.8785 60.6894 31.9416 61.0944 31.9416C61.4766 31.9416 61.8034 31.8785 62.0745 31.7528C62.3452 31.6278 62.5662 31.4532 62.7375 31.2302C62.9085 31.0075 63.0338 30.7466 63.1136 30.4467C63.1938 30.1463 63.2337 29.8195 63.2337 29.465V26.046V26.046ZM65.364 26.046V31.8728H66.2366V29.7995H67.0474C67.3942 29.7995 67.7003 29.7523 67.9644 29.6579C68.229 29.5639 68.4508 29.4336 68.6299 29.268C68.8094 29.1027 68.9441 28.9065 69.0353 28.681C69.126 28.4556 69.1716 28.2109 69.1716 27.9484C69.1716 27.6855 69.1248 27.4384 69.0308 27.2072C68.9364 26.9757 68.798 26.7746 68.6156 26.6028C68.4329 26.4315 68.2021 26.296 67.9225 26.1958C67.6429 26.0961 67.3205 26.046 66.9554 26.046H65.364V26.046ZM66.2366 29.0449V26.8515H66.9611C67.3592 26.8515 67.6811 26.937 67.9286 27.1084C68.1757 27.2801 68.299 27.5601 68.299 27.9484C68.299 28.3428 68.1769 28.6241 67.9323 28.7926C67.6885 28.9611 67.3645 29.0449 66.9611 29.0449H66.2366ZM77.3001 26.8515V26.046H73.6895V31.8728H74.5622V29.594H76.898L77.0348 28.7881H74.5622V26.8515H77.3001ZM79.8668 28.1153C79.9755 27.8499 80.1236 27.6183 80.3121 27.4213C80.5001 27.2247 80.7199 27.0689 80.9706 26.9541C81.2217 26.8401 81.4896 26.7831 81.7753 26.7831C82.0606 26.7831 82.3284 26.8401 82.5795 26.9541C82.8303 27.0689 83.0497 27.2247 83.2381 27.4213C83.4266 27.6183 83.5747 27.8499 83.683 28.1153C83.7916 28.3811 83.8458 28.6627 83.8458 28.9594C83.8458 29.2623 83.7916 29.5451 83.683 29.8081C83.5747 30.0706 83.4266 30.3006 83.2381 30.498C83.0497 30.695 82.8303 30.8508 82.5795 30.9648C82.3284 31.0792 82.0606 31.1362 81.7753 31.1362C81.4896 31.1362 81.2217 31.0792 80.9706 30.9648C80.7199 30.8508 80.5001 30.695 80.3121 30.498C80.1236 30.3006 79.9755 30.0706 79.8668 29.8081C79.7589 29.5451 79.7044 29.2623 79.7044 28.9594C79.7044 28.6627 79.7589 28.3811 79.8668 28.1153ZM79.0629 30.1207C79.2168 30.4833 79.4264 30.7991 79.6914 31.0678C79.9567 31.3364 80.2689 31.5489 80.6283 31.706C80.9881 31.8631 81.3699 31.9416 81.7753 31.9416C82.1803 31.9416 82.562 31.8631 82.9219 31.706C83.2812 31.5489 83.5934 31.3364 83.8588 31.0678C84.1238 30.7991 84.3338 30.4833 84.4876 30.1207C84.6415 29.758 84.7184 29.3709 84.7184 28.9594C84.7184 28.5484 84.6415 28.1613 84.4876 27.7986C84.3338 27.4356 84.1238 27.1201 83.8588 26.8515C83.5934 26.5829 83.2812 26.3704 82.9219 26.2129C82.562 26.0558 82.1803 25.9773 81.7753 25.9773C81.3699 25.9773 80.9881 26.0558 80.6283 26.2129C80.2689 26.3704 79.9567 26.5829 79.6914 26.8515C79.4264 27.1201 79.2168 27.4356 79.0629 27.7986C78.9087 28.1613 78.8317 28.5484 78.8317 28.9594C78.8317 29.3709 78.9087 29.758 79.0629 30.1207ZM90.6181 27.1686C90.5241 26.9459 90.3914 26.7514 90.2205 26.5857C90.0491 26.4205 89.8395 26.289 89.5912 26.1913C89.3429 26.0945 89.0653 26.046 88.7572 26.046H86.635V31.8728H87.5081V29.6705H88.6714L89.8692 31.9416L90.7675 31.8045L89.5782 29.5337C89.9262 29.4023 90.2103 29.1923 90.4297 28.9037C90.6494 28.6151 90.7593 28.274 90.7593 27.88C90.7593 27.6285 90.7121 27.3916 90.6181 27.1686V27.1686ZM87.5081 26.8515H88.5859C88.7743 26.8515 88.9481 26.8703 89.1077 26.9069C89.2676 26.9443 89.4048 27.0042 89.5188 27.0872C89.6327 27.1702 89.7227 27.2756 89.7878 27.4042C89.8537 27.5325 89.8863 27.6912 89.8863 27.88C89.8863 28.0685 89.8537 28.2284 89.7878 28.3599C89.7227 28.4914 89.6327 28.5984 89.5188 28.681C89.4048 28.7641 89.2676 28.8239 89.1077 28.8609C88.9481 28.8984 88.7743 28.9167 88.5859 28.9167H87.5081V26.8515V26.8515Z" fill="#1D1D1B"/>
<path d="M99.0362 26.8511V26.0456H95.4939V31.8733H99.0362L99.1729 31.067H96.3665V29.3278H98.634V28.5223H96.3665V26.8511H99.0362V26.8511ZM103.81 31.9412L104.726 31.8045L103.006 28.8394L104.666 26.114L103.793 25.9773L102.596 28.1283L101.355 25.9773L100.448 26.114L102.099 28.9851L100.362 31.8045L101.244 31.9412L102.51 29.6876L103.81 31.9412V31.9412ZM111.032 26.9028C110.758 26.6228 110.444 26.3989 110.091 26.23C109.737 26.0615 109.355 25.9773 108.944 25.9773C108.539 25.9773 108.158 26.0587 107.802 26.2211C107.445 26.3843 107.135 26.6045 106.869 26.8812C106.604 27.1584 106.393 27.48 106.236 27.845C106.079 28.2109 106.001 28.5935 106.001 28.9936C106.001 29.3994 106.079 29.7808 106.236 30.1373C106.393 30.4947 106.604 30.8061 106.869 31.0714C107.135 31.3372 107.445 31.5489 107.802 31.706C108.158 31.8627 108.539 31.9412 108.944 31.9412C109.349 31.9412 109.727 31.8643 110.078 31.71C110.429 31.5558 110.741 31.3413 111.015 31.067L110.424 30.476C110.236 30.6815 110.015 30.8435 109.761 30.9603C109.508 31.0775 109.235 31.1357 108.944 31.1357C108.659 31.1357 108.391 31.0792 108.14 30.9644C107.889 30.8504 107.669 30.6945 107.481 30.4975C107.293 30.3006 107.145 30.0706 107.036 29.8077C106.928 29.5451 106.874 29.2623 106.874 28.9594C106.874 28.6623 106.928 28.3811 107.036 28.1149C107.145 27.8495 107.293 27.6183 107.481 27.4209C107.669 27.2239 107.889 27.0685 108.14 26.9541C108.391 26.8401 108.659 26.7827 108.944 26.7827C109.235 26.7827 109.508 26.8426 109.761 26.9626C110.015 27.0827 110.236 27.2427 110.424 27.4425L111.032 26.9028V26.9028ZM116.32 26.8511V26.0456H112.777V31.8733H116.32L116.456 31.067H113.65V29.3278H115.918V28.5223H113.65V26.8511H116.32ZM119.203 30.999V25.9773L118.33 26.0456V31.8733H121.479L121.599 30.999H119.203V30.999ZM124.003 30.999V25.9773L123.13 26.0456V31.8733H126.279L126.399 30.999H124.003V30.999ZM131.473 26.8511V26.0456H127.93V31.8733H131.473L131.609 31.067H128.803V29.3278H131.07V28.5223H128.803V26.8511H131.473ZM137.428 26.0456V30.4589L134.287 25.9773L133.484 26.114V31.8733H134.287V27.4596L137.428 31.9412L138.164 31.8045V26.0456H137.428ZM145.154 26.9028C144.88 26.6228 144.567 26.3989 144.213 26.23C143.859 26.0615 143.477 25.9773 143.066 25.9773C142.661 25.9773 142.28 26.0587 141.924 26.2211C141.567 26.3843 141.256 26.6045 140.991 26.8812C140.726 27.1584 140.515 27.48 140.358 27.845C140.202 28.2109 140.123 28.5935 140.123 28.9936C140.123 29.3994 140.202 29.7808 140.358 30.1373C140.515 30.4947 140.726 30.8061 140.991 31.0714C141.256 31.3372 141.567 31.5489 141.924 31.706C142.28 31.8627 142.661 31.9412 143.066 31.9412C143.471 31.9412 143.849 31.8643 144.2 31.71C144.551 31.5558 144.863 31.3413 145.137 31.067L144.547 30.476C144.359 30.6815 144.138 30.8435 143.884 30.9603C143.63 31.0775 143.357 31.1357 143.066 31.1357C142.781 31.1357 142.513 31.0792 142.262 30.9644C142.011 30.8504 141.792 30.6945 141.603 30.4975C141.415 30.3006 141.266 30.0706 141.158 29.8077C141.05 29.5451 140.996 29.2623 140.996 28.9594C140.996 28.6623 141.05 28.3811 141.158 28.1149C141.266 27.8495 141.415 27.6183 141.603 27.4209C141.792 27.2239 142.011 27.0685 142.262 26.9541C142.513 26.8401 142.781 26.7827 143.066 26.7827C143.357 26.7827 143.63 26.8426 143.884 26.9626C144.138 27.0827 144.359 27.2427 144.547 27.4425L145.154 26.9028V26.9028ZM150.442 26.8511V26.0456H146.9V31.8733H150.442L150.579 31.067H147.772V29.3278H150.04V28.5223H147.772V26.8511H150.442Z" fill="#1D1D1B"/>
<path d="M150.588 4.00299V3.79704H147.924V4.00299H147.992C148.385 4.0677 148.598 4.40431 148.625 4.90453V12.9126C148.228 12.1413 144.196 4.02904 144.129 3.91019C144.092 3.84955 144.014 3.79704 143.961 3.79704H141.236V4.00299H141.288C141.687 4.0677 141.915 4.42751 141.915 4.93953V17.4434C141.915 17.9766 141.734 18.3307 141.336 18.3828L141.288 18.3926V18.6038H143.991V18.3926L143.937 18.3828C143.55 18.3324 143.313 17.9766 143.313 17.4552V7.46344L143.332 7.50414C143.803 8.4708 148.796 18.6038 148.796 18.6038H149.955V4.93953C149.955 4.42751 150.131 4.0677 150.535 4.00299H150.588V4.00299ZM134.492 18.6038H138.118V18.3926L138.078 18.3828C137.705 18.3324 137.499 17.9722 137.499 17.4434V4.93953C137.499 4.42751 137.705 4.0677 138.078 4.00299H138.118V3.79704H134.492V4.00299H134.541C134.91 4.05794 135.122 4.42751 135.122 4.93953V17.4434C135.122 17.9722 134.91 18.3324 134.541 18.3828L134.492 18.3926V18.6038ZM132.434 5.83253L132.619 5.78857L132.61 5.75071L132.155 3.90205C132.146 3.84629 132.077 3.79704 132.028 3.79704H123.517C123.462 3.79704 123.396 3.84629 123.394 3.90205L122.938 5.75071L122.935 5.78857L123.129 5.83253L123.164 5.76048C123.271 5.48453 123.503 5.2163 124.109 5.20938H126.445L126.477 5.21915C126.509 5.23584 126.537 5.2741 126.545 5.31887V17.4072H126.54V17.4434C126.54 17.9433 126.401 18.3279 125.968 18.3828L125.915 18.3926V18.6038H129.632V18.3926L129.583 18.3828C129.147 18.3307 129.002 17.9766 129.002 17.4434V5.32701C129.002 5.26555 129.052 5.20938 129.112 5.20938H131.439L131.585 5.2163C132.087 5.26026 132.29 5.50691 132.393 5.76048L132.422 5.83253H132.434V5.83253ZM119.043 11.2059L118.955 11.175C119.324 10.9939 119.936 10.6443 120.34 10.234C120.991 9.53189 121.371 8.57214 121.371 7.50657C121.371 6.4117 120.939 5.37097 120.223 4.72503C119.567 4.12062 118.408 3.79704 116.975 3.79704H112.549V4.00299H112.598C112.997 4.0677 113.177 4.42751 113.177 4.93953V17.4434C113.177 17.9766 112.997 18.3324 112.598 18.3828L112.549 18.3926V18.6038H116.152V18.3926L116.103 18.3828C115.705 18.3324 115.532 17.9766 115.532 17.4434V17.4072L115.528 11.8856L115.648 11.884C115.695 11.884 115.761 11.8804 115.836 11.884L115.953 11.8856C115.994 11.8856 116.039 11.884 116.084 11.8856C116.436 11.8873 116.866 11.8979 117.103 11.904C117.304 12.1006 117.465 12.3558 117.642 12.7469C118.491 14.6102 119.693 17.548 119.974 18.3092L120.469 18.6038H123.361V18.3543L123.304 18.3474C123.173 18.3279 122.959 18.2681 122.768 18.0768C122.411 17.7479 121.741 16.1854 121.142 14.786C120.764 13.8882 120.365 13.0444 120.111 12.5291C119.645 11.6496 119.244 11.4127 119.042 11.2059H119.043ZM118.905 7.6877C118.905 8.58517 118.734 9.29133 118.43 9.74312C118.315 9.8929 118.167 10.0284 118.028 10.1351C117.518 10.4937 116.908 10.5889 116.079 10.5889C115.904 10.5889 115.725 10.5856 115.528 10.5791V9.83715V5.67704V5.65059C115.528 5.11048 115.54 5.0885 116.214 5.0246H116.296L116.51 5.02338L116.721 5.02867C116.866 5.03315 117.011 5.04536 117.156 5.07914C117.694 5.16746 118.06 5.37097 118.318 5.72344C118.667 6.16139 118.905 7.00106 118.905 7.6877V7.6877ZM95.2036 18.6038H99.0756V18.3747L99.0247 18.3682C98.6136 18.3201 98.3779 17.9766 98.2953 17.4801L97.1248 2.22148H97.1296L97.1248 2.17468L97.1195 1.96873C97.1239 1.50636 97.2823 1.21087 97.6677 1.16203L97.7182 1.15185V0.925143H95.0856C95.0009 0.925143 94.948 0.962185 94.9175 1.05376L91.1038 12.1413L91.0875 12.1746L87.1248 1.04521C87.082 0.962181 87.0226 0.925143 86.9481 0.925143H84.1243V1.15185L84.1829 1.16203C84.5724 1.21331 84.7397 1.52956 84.7397 2.01798L84.7332 2.17468L84.7254 2.22148H84.7332L83.933 17.3417L83.9252 17.3498L83.9155 17.4072C83.867 17.9534 83.6159 18.3201 83.1816 18.3682L83.1283 18.3747V18.6038H86.0873V18.3747L86.0266 18.3682C85.6436 18.3173 85.4377 17.9905 85.4377 17.5082C85.4357 17.4581 85.4377 17.4072 85.4434 17.3523L85.4446 17.3038H85.4434L85.9115 6.12517L85.9371 5.68559L90.4566 18.0499C90.4831 18.0999 90.4888 18.1378 90.5437 18.1378C90.6048 18.1378 90.6121 18.1 90.6442 18.0373L94.6224 6.15081L94.7319 5.81869L94.7974 5.57733L94.8927 6.76133L95.6404 17.3038V17.3523C95.6526 17.4947 95.6607 17.6254 95.6607 17.743C95.6607 18.0943 95.5805 18.325 95.2586 18.3682L95.2036 18.3747V18.6038V18.6038ZM78.4789 4.00299L78.5327 3.99933V3.79704H75.7369V3.99933L75.7845 4.00299C76.045 4.0441 76.1764 4.19754 76.1793 4.44338C76.1813 4.56955 76.1455 4.72503 76.0747 4.90127L76.0511 4.9725L76.0356 4.98146C75.581 6.11174 73.9749 9.71992 73.8381 10.0663L73.8182 10.0093L71.5145 4.99122H71.521L71.5011 4.93953C71.3777 4.66765 71.2898 4.43768 71.2898 4.27447C71.2874 4.12795 71.3558 4.03555 71.5287 4.00299H71.5825V3.79704H68.1208V4.00299H68.17C68.5815 4.0677 68.6996 4.32901 68.9035 4.74498L72.1266 11.8856L72.1633 11.965V17.4072H72.1555V17.4434C72.1555 17.9766 72.0151 18.3279 71.5825 18.3828L71.5287 18.3926V18.6038H75.1373V18.3926L75.0808 18.3828C74.6416 18.3307 74.5101 17.9766 74.5101 17.4434V11.7721C75.0498 10.5055 77.3776 5.39254 77.5457 4.98146L77.5603 4.96965C77.6039 4.88784 77.6385 4.80237 77.6678 4.73888C77.8908 4.31314 78.065 4.05794 78.4789 4.00299V4.00299ZM64.2366 18.6038H67.647V18.3926L67.5962 18.3828C67.1883 18.3324 67.0581 18.0499 66.9966 17.5936L65.8509 4.99122H65.8606L65.8509 4.93953C65.8431 4.85813 65.8403 4.77957 65.8403 4.70916C65.8403 4.31313 65.9673 4.05794 66.3543 4.00299H66.4024V3.79704H64.0254C63.9648 3.79704 63.9029 3.82919 63.8764 3.91019L60.7953 12.8173L57.5506 3.89188C57.5294 3.8292 57.4777 3.79704 57.4094 3.79704H54.9115V4.00299H54.9547C55.345 4.05794 55.4732 4.31313 55.4789 4.70916L55.4659 4.93953L55.4626 4.99122H55.4654L54.7328 17.4072V17.4434C54.686 17.9766 54.498 18.3307 54.069 18.3828L54.0112 18.3926V18.6038H56.6548V18.3926L56.6035 18.3828C56.218 18.3324 56.0552 18.0434 56.0552 17.5883L56.0593 17.4434L56.0674 17.4072H56.0593C56.1606 15.4702 56.518 8.28764 56.518 8.28764L56.5514 7.74183L56.5619 7.77154C56.7903 8.4187 59.6309 16.3791 60.2332 18.0987C60.256 18.1378 60.256 18.1818 60.3256 18.1818C60.3716 18.1818 60.383 18.1545 60.4103 18.0987L63.6359 8.12484C63.6359 8.12484 63.6746 7.98889 63.7222 7.86963L63.7958 7.63398L63.876 8.58516L64.6164 17.4072V17.4434C64.6363 17.6128 64.6498 17.7605 64.6498 17.8867C64.6498 18.1667 64.5814 18.3425 64.2912 18.3828L64.2362 18.3926V18.6038H64.2366ZM52.2529 18.4858L52.4698 16.6888V16.6677L52.2586 16.6469L52.2529 16.6978C52.0734 17.1488 51.701 17.2985 51.0424 17.2985H48.6215C47.8774 17.2941 47.8274 17.2037 47.8274 16.7556V11.7147C47.8274 11.6561 47.8714 11.6011 47.9401 11.6011H50.6639L50.7612 11.6073C51.0168 11.6366 51.2219 11.7863 51.3005 12.1006L51.3135 12.1531H51.5178V9.67678H51.3135L51.3005 9.71993C51.2129 10.0744 50.9647 10.2271 50.6639 10.2271H47.8274V5.2916C47.8274 5.22688 47.8714 5.18374 47.9401 5.17845H48.0195L48.1152 5.1813H48.6593C48.7143 5.1813 48.7668 5.1813 48.8266 5.18374H50.8894C51.3261 5.18374 51.5764 5.2916 51.7388 5.6803L51.7486 5.72344L51.9671 5.71327L51.9582 5.68559L51.7185 3.90205C51.7185 3.84629 51.6586 3.79704 51.5947 3.79704H44.8199V4.00299H44.8704C45.2966 4.0677 45.4435 4.41937 45.4435 4.93953V17.4434C45.4435 17.9766 45.2966 18.3279 44.8704 18.3828L44.8199 18.3926V18.6038H52.1385C52.2004 18.59 52.2529 18.5436 52.2529 18.4858V18.4858ZM48.9862 3.36113L51.6411 0H50.0232L48.1929 3.36113H48.9862Z" fill="#1D1D1B"/>
<path d="M43.7077 18.4321V18.2033C43.5518 18.176 43.2209 18.0702 43.0528 17.8923C42.6157 17.4861 41.7833 15.5349 41.0218 13.7514C40.5924 12.7408 40.1442 11.7879 39.8349 11.1961C39.2826 10.1379 38.867 9.85744 38.596 9.61853C38.5496 9.58556 38.5076 9.58556 38.4604 9.53102C38.9069 9.31449 39.6314 8.90421 40.1211 8.38201C40.9937 7.46257 41.3344 6.2285 41.3344 5.14746C41.3344 3.79821 40.8105 2.58692 39.9855 1.82947C39.1861 1.12899 37.8308 0.73175 36.1189 0.73175H31.0995V0.962529H31.1594C31.5908 1.03091 31.7793 1.41309 31.7793 1.98739V17.1809C31.7793 17.7466 31.5908 18.1378 31.1594 18.2033H31.0995V18.4321H35.1274V18.2033H35.0675C34.621 18.1484 34.4383 17.7523 34.4383 17.1809V12.9923V10.3939V10.3459H34.5706L34.6337 10.3483C34.9153 10.3507 35.534 10.3528 35.9972 10.3589C36.035 10.3589 36.0717 10.3589 36.1103 10.3613H36.3891C36.6146 10.5823 36.8303 10.8811 37.077 11.4025C38.0705 13.5959 39.4918 17.0291 39.8772 18.0409L40.6196 18.4186V18.4321H43.7077ZM38.0094 7.85086C37.867 8.06902 37.6712 8.23671 37.475 8.36167C36.8454 8.80898 36.0717 8.90422 34.9646 8.90422L34.4383 8.89893V2.92312C34.4383 2.2084 34.4786 2.17096 35.3187 2.11031L35.6345 2.1038L35.9023 2.1095C36.0851 2.11601 36.2768 2.13392 36.4677 2.16607C37.1246 2.28859 37.5699 2.54785 37.8873 2.97807C38.2797 3.47626 38.596 4.49339 38.596 5.36522C38.596 6.38601 38.4051 7.26883 38.0094 7.85086" fill="#1D1D1B"/>
<defs>
<linearGradient id="paint0_linear" x1="17.3279" y1="6.09059" x2="4.14121" y2="36.7097" gradientUnits="userSpaceOnUse">
<stop stop-color="#D8AA53"/>
<stop offset="0.26" stop-color="#E9D39E"/>
<stop offset="0.52" stop-color="#EEDDA3"/>
<stop offset="1" stop-color="#D39D43"/>
</linearGradient>
</defs>
</svg>
