<svg xmlns="http://www.w3.org/2000/svg" width="20" height="20" fill="none" viewBox="0 0 20 20">
    <g fill="#BC9366" clip-path="url(#a)">
        <path d="M15.502 11.58c-2.305-.754-3.263-1.69-3.263-1.69l-.077.074c-.685.644-1.442 1.023-2.131 1.023h-.065c-.69 0-1.447-.38-2.131-1.023l-.078-.074s-.958.936-3.262 1.69c-3.403 1.27-2.381 6.443-2.382 6.483.107.576.17.774.224.796 3.417 1.521 11.906 1.521 15.323 0 .054-.022.117-.22.224-.796-.001-.04 1.034-5.192-2.382-6.484z"/>
        <path d="M13.571 4.98l-.028-.03c-.192-.176-.177-.166-.177-.166s.334-1.685.066-2.481C13.012 1.03 10.502.177 9.997.078c0 0-.306-.062-.325-.062 0 0-.397-.08-.856.12C8.517.251 6.954.96 6.51 2.303c-.267.796.067 2.481.067 2.481s.015-.01-.177.165l-.028.031c-.13.147-.098.608.044 1.086.128.48.295.609.335.721.406 1.907 1.819 3.535 3.258 3.535s2.776-1.628 3.182-3.535c.04-.112.208-.241.336-.72.142-.48.177-.971.044-1.087z"/>
    </g>
    <defs>
        <clipPath id="a">
            <path fill="#fff" d="M0 0h20v20H0z"/>
        </clipPath>
    </defs>
</svg>
